

mtllib comma_3006_01.mtl
g default
v 1.379043 -5.554940 0.297267
v 1.527368 -5.628261 0.297267
v 1.589374 -5.474280 0.297267
v 1.628792 -5.355969 0.297267
v 1.417447 -5.372346 0.297267
v 1.307693 -5.804920 0.297267
v 1.445300 -5.791821 0.297267
v 1.417447 -5.372346 0.469155
v 1.628792 -5.355969 0.469155
v 1.379043 -5.554940 0.469155
v 1.589374 -5.474280 0.469155
v 1.527368 -5.628261 0.469155
v 1.307693 -5.804920 0.469155
v 1.445300 -5.791821 0.469155
vt 0.795634 0.992894
vt 0.790402 0.992488
vt 0.789387 0.987740
vt 0.794658 0.989965
vt 0.792920 0.985707
vt 0.787684 0.981778
vt 0.791091 0.982103
vt 0.795634 0.992894
vt 0.794658 0.989965
vt 0.789387 0.987740
vt 0.790402 0.992488
vt 0.792920 0.985707
vt 0.791091 0.982103
vt 0.787684 0.981778
vt 0.795634 0.992894
vt 0.790402 0.992488
vt 0.789387 0.987740
vt 0.794658 0.989965
vt 0.792920 0.985707
vt 0.787684 0.981778
vt 0.791091 0.982103
vn -0.000000 0.000000 1.000000
vn -0.000000 0.000000 1.000000
vn -0.000000 0.000000 1.000000
vn -0.000000 0.000000 1.000000
vn 0.000000 0.000000 1.000000
vn 0.000000 0.000000 1.000000
vn 0.000000 0.000000 1.000000
vn 0.000000 0.000000 -1.000000
vn 0.000000 0.000000 -1.000000
vn -0.000000 0.000000 -1.000000
vn 0.000000 0.000000 -1.000000
vn -0.000000 0.000000 -1.000000
vn -0.000000 0.000000 -1.000000
vn -0.000000 0.000000 -1.000000
vn -0.077258 0.997011 0.000000
vn -0.077258 0.997011 0.000000
vn -0.077258 0.997011 0.000000
vn -0.077258 0.997011 0.000000
vn -0.978589 0.205824 0.000000
vn -0.969287 0.245931 0.000000
vn -0.969287 0.245931 0.000000
vn -0.978589 0.205824 0.000000
vn 0.937103 -0.349053 0.000000
vn 0.948729 -0.316089 0.000000
vn 0.948729 -0.316089 0.000000
vn 0.937103 -0.349053 0.000000
vn 0.910651 -0.413177 0.000000
vn 0.910651 -0.413177 0.000000
vn -0.961598 0.274461 0.000000
vn -0.961598 0.274461 0.000000
vn 0.094758 -0.995500 0.000000
vn 0.094758 -0.995500 0.000000
vn 0.094758 -0.995500 0.000000
vn 0.094758 -0.995500 0.000000
vn 0.893797 -0.448472 0.000000
vn 0.893797 -0.448472 0.000000
s 1
g comma_3006_01
usemtl lambert2SG
f 9/1/1 8/2/2 10/3/3 11/4/4
f 11/4/4 10/3/3 12/5/5
f 12/5/5 10/3/3 13/6/6 14/7/7
s 2
f 4/8/8 3/9/9 1/10/10 5/11/11
f 3/9/9 2/12/12 1/10/10
f 2/12/12 7/13/13 6/14/14 1/10/10
s off
f 4/15/15 5/16/16 8/2/17 9/1/18
s 3
f 5/16/19 1/17/20 10/3/21 8/2/22
s 4
f 3/18/23 4/15/24 9/1/25 11/4/26
f 2/19/27 3/18/23 11/4/26 12/5/28
s 3
f 1/17/20 6/20/29 13/6/30 10/3/21
s off
f 6/20/31 7/21/32 14/7/33 13/6/34
s 4
f 7/21/35 2/19/27 12/5/28 14/7/36
