

mtllib five_3006_01.mtl
g default
v -0.444515 -3.743592 0.297267
v -0.444515 -3.873695 0.297267
v -0.530926 -3.865113 0.297267
v -0.625819 -3.832577 0.297267
v -0.706462 -3.778310 0.297267
v -0.769498 -3.706149 0.297267
v -0.811498 -3.619828 0.297267
v -0.832462 -3.519346 0.297267
v -0.667676 -3.505399 0.297267
v -0.651669 -3.578988 0.297267
v -0.626495 -3.639292 0.297267
v -0.579618 -3.695450 0.297267
v -0.505287 -3.734657 0.297267
v -0.811498 -3.619828 0.469155
v -0.651669 -3.578988 0.469155
v -0.667676 -3.505399 0.469155
v -0.832462 -3.519346 0.469155
v -0.769498 -3.706149 0.469155
v -0.626495 -3.639292 0.469155
v -0.706462 -3.778310 0.469155
v -0.579618 -3.695450 0.469155
v -0.625819 -3.832577 0.469155
v -0.530926 -3.865113 0.469155
v -0.505287 -3.734657 0.469155
v -0.444515 -3.743592 0.469155
v -0.444515 -3.873695 0.469155
v -0.444515 -3.014448 0.297267
v -0.444515 -3.147501 0.297267
v -0.540132 -3.170167 0.297267
v -0.615060 -3.219872 0.297267
v -0.657212 -3.269113 0.297267
v -0.804569 -3.249935 0.297267
v -0.680748 -2.593363 0.297267
v -0.045105 -2.593363 0.297267
v -0.045105 -2.743327 0.297267
v -0.555194 -2.743327 0.297267
v -0.624069 -3.086881 0.297267
v -0.546087 -3.042310 0.297267
v -0.680748 -2.593363 0.469155
v -0.555194 -2.743327 0.469155
v -0.045105 -2.743327 0.469155
v -0.045105 -2.593363 0.469155
v -0.804569 -3.249935 0.469155
v -0.624069 -3.086881 0.469155
v -0.615060 -3.219872 0.469155
v -0.657212 -3.269113 0.469155
v -0.540132 -3.170167 0.469155
v -0.546087 -3.042310 0.469155
v -0.444515 -3.014448 0.469155
v -0.444515 -3.147501 0.469155
v -0.344515 -3.865844 0.297267
v -0.344515 -3.731505 0.297267
v -0.344515 -3.155370 0.297267
v -0.344515 -3.011295 0.297267
v -0.296705 -3.715525 0.297267
v -0.233003 -3.672113 0.297267
v -0.186355 -3.598310 0.297267
v -0.160212 -3.522738 0.297267
v -0.151480 -3.434774 0.297267
v -0.159873 -3.351560 0.297267
v -0.185016 -3.280935 0.297267
v -0.226909 -3.222899 0.297267
v -0.276748 -3.019542 0.297267
v -0.182587 -3.058203 0.297267
v -0.100033 -3.122631 0.297267
v -0.036105 -3.207292 0.297267
v 0.002270 -3.306703 0.297267
v 0.015056 -3.420828 0.297267
v 0.003806 -3.531274 0.297267
v -0.029909 -3.631256 0.297267
v -0.086087 -3.720774 0.297267
v -0.178033 -3.806988 0.297267
v -0.264939 -3.849779 0.297267
v -0.282373 -3.179792 0.297267
v -0.282373 -3.179792 0.469155
v -0.182587 -3.058203 0.469155
v -0.276748 -3.019542 0.469155
v -0.344515 -3.011295 0.469155
v -0.344515 -3.155370 0.469155
v -0.226909 -3.222899 0.469155
v -0.100033 -3.122631 0.469155
v -0.185016 -3.280935 0.469155
v -0.036105 -3.207292 0.469155
v -0.159873 -3.351560 0.469155
v 0.002270 -3.306703 0.469155
v -0.151480 -3.434774 0.469155
v 0.015056 -3.420828 0.469155
v -0.160212 -3.522738 0.469155
v 0.003806 -3.531274 0.469155
v -0.186355 -3.598310 0.469155
v -0.029909 -3.631256 0.469155
v -0.233003 -3.672113 0.469155
v -0.086087 -3.720774 0.469155
v -0.178033 -3.806988 0.469155
v -0.296705 -3.715525 0.469155
v -0.264939 -3.849779 0.469155
v -0.344515 -3.865844 0.469155
v -0.344515 -3.731505 0.469155
vt 0.586468 0.885287
vt 0.590395 0.886281
vt 0.589967 0.888071
vt 0.585958 0.887732
vt 0.587490 0.883187
vt 0.591085 0.884814
vt 0.589024 0.881432
vt 0.592036 0.883669
vt 0.590986 0.880111
vt 0.593294 0.879320
vt 0.593844 0.882605
vt 0.595397 0.879111
vt 0.595376 0.882306
vt 0.586468 0.885287
vt 0.585958 0.887732
vt 0.589967 0.888071
vt 0.590395 0.886281
vt 0.587490 0.883187
vt 0.591085 0.884814
vt 0.589024 0.881432
vt 0.592036 0.883669
vt 0.590986 0.880111
vt 0.593294 0.879320
vt 0.593844 0.882605
vt 0.595397 0.879111
vt 0.595376 0.882306
vt 0.597829 0.882625
vt 0.597829 0.879302
vt 0.597829 0.879302
vt 0.597829 0.882625
vt 0.599157 0.879476
vt 0.599157 0.879476
vt 0.598472 0.882772
vt 0.598472 0.882772
vt 0.591085 0.884814
vt 0.590395 0.886281
vt 0.586468 0.885287
vt 0.587490 0.883187
vt 0.592036 0.883669
vt 0.589024 0.881432
vt 0.590986 0.880111
vt 0.593844 0.882605
vt 0.593294 0.879320
vt 0.595397 0.879111
vt 0.595376 0.882306
vt 0.589649 0.910260
vt 0.592704 0.906611
vt 0.605114 0.906611
vt 0.605114 0.910260
vt 0.586637 0.894286
vt 0.591028 0.898253
vt 0.591247 0.895018
vt 0.590222 0.893820
vt 0.593070 0.896227
vt 0.592925 0.899337
vt 0.595397 0.896778
vt 0.595226 0.900024
vt 0.589649 0.910260
vt 0.605114 0.910260
vt 0.605114 0.906611
vt 0.592704 0.906611
vt 0.586637 0.894286
vt 0.591028 0.898253
vt 0.591247 0.895018
vt 0.590222 0.893820
vt 0.593070 0.896227
vt 0.592925 0.899337
vt 0.595397 0.896778
vt 0.595226 0.900024
vt 0.606266 0.892905
vt 0.605333 0.895324
vt 0.605333 0.895324
vt 0.606266 0.892905
vt 0.601710 0.893532
vt 0.602322 0.891814
vt 0.602322 0.891814
vt 0.601710 0.893532
vt 0.606577 0.890129
vt 0.606577 0.890129
vt 0.602526 0.889789
vt 0.602526 0.889789
vt 0.606304 0.887442
vt 0.606304 0.887442
vt 0.602313 0.887649
vt 0.602313 0.887649
vt 0.605483 0.885009
vt 0.605483 0.885009
vt 0.601677 0.885811
vt 0.601677 0.885811
vt 0.604117 0.882831
vt 0.604117 0.882831
vt 0.600616 0.884274
vt 0.600616 0.884274
vt 0.601880 0.880734
vt 0.601880 0.880734
vt 0.599157 0.879476
vt 0.599157 0.879476
vt 0.598472 0.882772
vt 0.598472 0.882772
vt 0.599341 0.895993
vt 0.601769 0.898951
vt 0.599478 0.899891
vt 0.597829 0.900092
vt 0.597829 0.896587
vt 0.600691 0.894944
vt 0.603777 0.897383
vt 0.601710 0.893532
vt 0.605333 0.895324
vt 0.602322 0.891814
vt 0.606266 0.892905
vt 0.602526 0.889789
vt 0.606577 0.890129
vt 0.602313 0.887649
vt 0.606304 0.887442
vt 0.601677 0.885811
vt 0.605483 0.885009
vt 0.600616 0.884274
vt 0.604117 0.882831
vt 0.601880 0.880734
vt 0.598472 0.882772
vt 0.599157 0.879476
vt 0.597829 0.882625
vt 0.597829 0.879302
vt 0.599341 0.895993
vt 0.599478 0.899891
vt 0.601769 0.898951
vt 0.597829 0.896587
vt 0.597829 0.900092
vt 0.600691 0.894944
vt 0.603777 0.897383
vt 0.601710 0.893532
vt 0.605333 0.895324
vt 0.602322 0.891814
vt 0.606266 0.892905
vt 0.602526 0.889789
vt 0.606577 0.890129
vt 0.602313 0.887649
vt 0.606304 0.887442
vt 0.601677 0.885811
vt 0.605483 0.885009
vt 0.600616 0.884274
vt 0.604117 0.882831
vt 0.601880 0.880734
vt 0.598472 0.882772
vt 0.599157 0.879476
vt 0.597829 0.882625
vt 0.597829 0.879302
vt 0.601769 0.898951
vt 0.599478 0.899891
vt 0.592704 0.906611
vt 0.605114 0.906611
vt 0.605114 0.906611
vt 0.592704 0.906611
vt 0.605114 0.910260
vt 0.605114 0.910260
vt 0.589649 0.910260
vt 0.589649 0.910260
vt 0.590395 0.886281
vt 0.589967 0.888071
vt 0.589967 0.888071
vt 0.590395 0.886281
vt 0.585958 0.887732
vt 0.585958 0.887732
vt 0.586468 0.885287
vt 0.586468 0.885287
vt 0.591028 0.898253
vt 0.591028 0.898253
vt 0.586637 0.894286
vt 0.586637 0.894286
vt 0.590222 0.893820
vt 0.591247 0.895018
vt 0.591247 0.895018
vt 0.590222 0.893820
vt 0.592925 0.899337
vt 0.592925 0.899337
vt 0.593070 0.896227
vt 0.593070 0.896227
vt 0.595397 0.896778
vt 0.595226 0.900024
vt 0.595226 0.900024
vt 0.595397 0.896778
vt 0.595291 0.896785
vt 0.595291 0.896785
vt 0.597829 0.900092
vt 0.597829 0.896587
vt 0.599341 0.895993
vt 0.603777 0.897383
vt 0.600691 0.894944
vt 0.605333 0.895324
vt 0.601710 0.893532
vn 0.000000 -0.000001 1.000000
vn 0.000000 -0.000001 1.000000
vn 0.000000 -0.000001 1.000000
vn 0.000000 -0.000001 1.000000
vn 0.000000 0.000000 1.000000
vn 0.000000 0.000000 1.000000
vn 0.000000 0.000000 1.000000
vn 0.000000 0.000000 1.000000
vn 0.000000 0.000000 1.000000
vn 0.000000 0.000000 1.000000
vn 0.000000 0.000000 1.000000
vn 0.000000 0.000000 1.000000
vn 0.000001 0.000000 1.000000
vn 0.000001 0.000000 1.000000
vn 0.000001 0.000000 1.000000
vn -0.000000 0.000000 1.000000
vn -0.000000 0.000000 1.000000
vn -0.000000 0.000000 1.000000
vn -0.000000 0.000000 1.000000
vn 0.000000 0.000000 1.000000
vn 0.000000 0.000000 1.000000
vn 0.000000 0.000000 1.000000
vn 0.000000 0.000000 1.000000
vn -0.000000 0.000000 -1.000000
vn -0.000000 0.000000 -1.000000
vn -0.000000 0.000000 -1.000000
vn -0.000000 0.000000 -1.000000
vn 0.000000 0.000000 -1.000000
vn 0.000000 0.000000 -1.000000
vn 0.000000 0.000000 -1.000000
vn 0.000000 0.000000 -1.000000
vn -0.000000 0.000000 -1.000000
vn -0.000000 0.000000 -1.000000
vn -0.000000 0.000000 -1.000000
vn -0.000000 0.000000 -1.000000
vn 0.000000 0.000000 -1.000000
vn 0.000000 0.000000 -1.000000
vn 0.000000 0.000000 -1.000000
vn 0.000000 0.000000 -1.000000
vn 0.000000 0.000000 -1.000000
vn 0.000000 0.000000 -1.000000
vn 0.000000 0.000000 -1.000000
vn -0.000000 0.000000 -1.000000
vn -0.000000 0.000000 -1.000000
vn -0.000000 0.000000 -1.000000
vn -0.000000 0.000000 -1.000000
vn 0.955812 0.293979 0.000000
vn 0.977150 0.212551 0.000000
vn 0.977150 0.212551 0.000000
vn 0.955812 0.293979 0.000000
vn -0.084333 0.996438 0.000000
vn -0.084333 0.996438 0.000000
vn -0.084333 0.996438 0.000000
vn -0.084333 0.996438 0.000000
vn -0.978921 -0.204238 0.000000
vn -0.947619 -0.319404 0.000000
vn -0.947619 -0.319404 0.000000
vn -0.978921 -0.204238 0.000000
vn 0.850407 0.526125 0.000000
vn 0.850407 0.526125 0.000000
vn -0.833550 -0.552444 0.000000
vn -0.833550 -0.552444 0.000000
vn 0.618343 0.785908 0.000000
vn 0.618343 0.785908 0.000000
vn -0.660602 -0.750737 0.000000
vn -0.660602 -0.750737 0.000000
vn -0.443269 -0.896389 0.000000
vn -0.443269 -0.896389 0.000000
vn 0.335668 0.941981 0.000000
vn 0.335668 0.941981 0.000000
vn -0.221171 -0.975235 0.000000
vn -0.221171 -0.975235 0.000000
vn 1.000000 0.000000 0.000000
vn 1.000000 0.000000 0.000000
vn 1.000000 0.000000 0.000000
vn 1.000000 0.000000 0.000000
vn 0.145472 0.989362 0.000000
vn 0.145472 0.989362 0.000000
vn -0.098826 -0.995105 0.000000
vn -0.098826 -0.995105 0.000000
vn -0.000000 -0.000000 1.000000
vn -0.000000 -0.000000 1.000000
vn -0.000000 -0.000000 1.000000
vn -0.000000 -0.000000 1.000000
vn 0.000000 0.000000 1.000000
vn 0.000000 0.000000 1.000000
vn 0.000000 0.000000 1.000000
vn 0.000000 0.000000 1.000000
vn -0.000001 0.000000 1.000000
vn -0.000001 0.000000 1.000000
vn -0.000001 0.000000 1.000000
vn 0.000000 0.000000 1.000000
vn 0.000000 0.000000 1.000000
vn 0.000000 0.000000 1.000000
vn -0.000001 -0.000000 1.000000
vn -0.000001 -0.000000 1.000000
vn -0.000001 -0.000000 1.000000
vn -0.000001 -0.000000 1.000000
vn -0.000000 0.000000 1.000000
vn -0.000000 0.000000 1.000000
vn -0.000000 0.000000 1.000000
vn -0.000000 0.000000 1.000000
vn 0.000000 0.000000 -1.000000
vn 0.000000 0.000000 -1.000000
vn 0.000000 0.000000 -1.000000
vn 0.000000 0.000000 -1.000000
vn 0.000000 0.000000 -1.000000
vn 0.000000 0.000000 -1.000000
vn 0.000000 0.000000 -1.000000
vn 0.000000 0.000000 -1.000000
vn 0.000000 0.000000 -1.000000
vn 0.000000 0.000000 -1.000000
vn 0.000000 0.000000 -1.000000
vn 0.000000 0.000000 -1.000000
vn 0.000000 0.000000 -1.000000
vn 0.000000 0.000000 -1.000000
vn 0.000000 0.000000 -1.000000
vn 0.000000 0.000000 -1.000000
vn 0.000000 0.000000 -1.000000
vn 0.000000 0.000000 -1.000000
vn 0.000000 0.000000 -1.000000
vn 0.000000 0.000000 -1.000000
vn 0.000000 0.000000 -1.000000
vn 0.000000 0.000000 -1.000000
vn 0.000000 -1.000000 0.000000
vn 0.000000 -1.000000 0.000000
vn 0.000000 -1.000000 0.000000
vn 0.000000 -1.000000 0.000000
vn 1.000000 0.000000 0.000000
vn 1.000000 0.000000 0.000000
vn 1.000000 0.000000 0.000000
vn 1.000000 0.000000 0.000000
vn 0.000000 1.000000 0.000000
vn 0.000000 1.000000 0.000000
vn 0.000000 1.000000 0.000000
vn 0.000000 1.000000 0.000000
vn 0.980491 -0.196566 0.000000
vn 0.980491 -0.196566 0.000000
vn 0.980491 -0.196566 0.000000
vn 0.980491 -0.196566 0.000000
vn -0.982678 0.185321 0.000000
vn -0.982678 0.185321 0.000000
vn -0.982678 0.185321 0.000000
vn -0.982678 0.185321 0.000000
vn 0.759675 -0.650303 0.000000
vn 0.645479 -0.763778 0.000000
vn 0.645478 -0.763779 0.000000
vn 0.759675 -0.650303 0.000000
vn -0.129062 -0.991636 0.000000
vn -0.129062 -0.991636 0.000000
vn -0.129062 -0.991636 0.000000
vn -0.129062 -0.991636 0.000000
vn -0.374114 0.927383 0.000000
vn -0.496225 0.868194 0.000000
vn -0.496225 0.868194 0.000000
vn -0.374113 0.927383 0.000000
vn 0.390633 -0.920546 0.000000
vn 0.390633 -0.920546 0.000000
vn 1.000000 0.000000 0.000000
vn 1.000000 0.000000 0.000000
vn 1.000000 0.000000 0.000000
vn 1.000000 0.000000 0.000000
vn -0.264536 0.964376 0.000000
vn -0.264536 0.964376 0.000000
vn 0.230657 -0.973035 0.000000
vn 0.230657 -0.973035 0.000000
vn 0.000000 0.000000 1.000000
vn 0.000000 0.000000 1.000000
vn 0.000000 0.000000 1.000000
vn -0.000001 0.000000 1.000000
vn -0.000001 0.000000 1.000000
vn -0.000001 0.000000 1.000000
vn -0.000001 0.000000 1.000000
vn 0.000000 -0.000000 1.000000
vn 0.000000 -0.000000 1.000000
vn 0.000000 -0.000000 1.000000
vn 0.000000 -0.000000 1.000000
vn 0.000000 0.000000 1.000000
vn 0.000000 0.000000 1.000000
vn 0.000000 0.000000 1.000000
vn 0.000000 0.000000 1.000000
vn 0.000000 0.000000 1.000000
vn 0.000000 0.000000 1.000000
vn 0.000000 0.000000 1.000000
vn 0.000000 0.000000 1.000000
vn -0.000000 0.000000 1.000000
vn -0.000000 0.000000 1.000000
vn -0.000000 0.000000 1.000000
vn -0.000000 0.000000 1.000000
vn 0.000000 0.000000 1.000000
vn 0.000000 0.000000 1.000000
vn 0.000000 0.000000 1.000000
vn 0.000000 0.000000 1.000000
vn 0.000000 0.000001 1.000000
vn 0.000000 0.000001 1.000000
vn 0.000000 0.000001 1.000000
vn 0.000000 0.000001 1.000000
vn -0.000000 -0.000001 1.000000
vn -0.000000 -0.000001 1.000000
vn -0.000000 -0.000001 1.000000
vn -0.000000 -0.000001 1.000000
vn 0.000000 0.000000 1.000000
vn 0.000000 0.000000 1.000000
vn 0.000000 0.000000 1.000000
vn 0.000000 0.000000 1.000000
vn 0.000000 0.000000 1.000000
vn 0.000000 0.000000 1.000000
vn 0.000000 0.000000 1.000000
vn 0.000000 0.000000 1.000000
vn 0.000000 0.000000 1.000000
vn 0.000000 0.000000 1.000000
vn 0.000000 0.000000 1.000000
vn 0.000000 0.000000 -1.000000
vn 0.000000 0.000000 -1.000000
vn 0.000000 0.000000 -1.000000
vn 0.000000 0.000000 -1.000000
vn 0.000000 0.000000 -1.000000
vn 0.000000 0.000000 -1.000000
vn 0.000000 0.000000 -1.000000
vn 0.000000 0.000000 -1.000000
vn 0.000000 0.000000 -1.000000
vn 0.000000 0.000000 -1.000000
vn 0.000000 0.000000 -1.000000
vn 0.000000 0.000000 -1.000000
vn 0.000000 0.000000 -1.000000
vn 0.000000 0.000000 -1.000000
vn 0.000000 0.000000 -1.000000
vn 0.000000 0.000000 -1.000000
vn 0.000000 0.000000 -1.000000
vn 0.000000 0.000000 -1.000000
vn 0.000000 0.000000 -1.000000
vn 0.000000 0.000000 -1.000000
vn 0.000000 0.000000 -1.000000
vn 0.000000 0.000000 -1.000000
vn 0.000000 0.000000 -1.000000
vn 0.000000 0.000000 -1.000000
vn 0.000000 0.000000 -1.000000
vn 0.000000 0.000000 -1.000000
vn 0.000000 0.000000 -1.000000
vn -0.000000 0.000000 -1.000000
vn -0.000000 0.000000 -1.000000
vn -0.000000 0.000000 -1.000000
vn -0.000000 0.000000 -1.000000
vn -0.000000 0.000000 -1.000000
vn -0.000000 0.000000 -1.000000
vn -0.000000 0.000000 -1.000000
vn -0.000000 0.000000 -1.000000
vn 0.000000 0.000000 -1.000000
vn 0.000000 0.000000 -1.000000
vn 0.000000 0.000000 -1.000000
vn 0.000000 0.000000 -1.000000
vn 0.000000 0.000000 -1.000000
vn 0.000000 0.000000 -1.000000
vn 0.000000 0.000000 -1.000000
vn 0.000000 0.000000 -1.000000
vn 0.000000 0.000000 -1.000000
vn 0.000000 0.000000 -1.000000
vn 0.000000 0.000000 -1.000000
vn 0.503893 0.863766 0.000000
vn 0.278240 0.960512 -0.000000
vn 0.278240 0.960512 -0.000000
vn 0.503893 0.863766 0.000000
vn 0.120796 0.992677 0.000001
vn 0.120796 0.992677 0.000001
vn -1.000000 0.000000 0.000000
vn -1.000000 0.000000 0.000000
vn -1.000000 0.000000 0.000000
vn -1.000000 0.000000 0.000000
vn -0.365767 -0.930706 0.000000
vn -0.497947 -0.867208 0.000000
vn -0.497947 -0.867208 0.000000
vn -0.365767 -0.930706 0.000000
vn 0.713315 0.700843 0.000001
vn 0.713315 0.700843 0.000001
vn -0.720461 -0.693495 0.000000
vn -0.720461 -0.693496 0.000000
vn 0.874074 0.485794 0.000000
vn 0.874074 0.485794 0.000000
vn -0.886842 -0.462072 0.000000
vn -0.886842 -0.462072 0.000000
vn 0.972478 0.232993 -0.000000
vn 0.972478 0.232993 -0.000000
vn -0.977054 -0.212991 0.000000
vn -0.977054 -0.212991 0.000000
vn 0.999977 0.006837 -0.000000
vn 0.999977 0.006837 -0.000000
vn -0.999998 0.001983 0.000000
vn -0.999998 0.001983 0.000000
vn 0.977924 -0.208963 0.000000
vn 0.977924 -0.208963 0.000000
vn -0.978008 0.208568 0.000000
vn -0.978008 0.208568 0.000000
vn 0.903498 -0.428592 0.000001
vn 0.903498 -0.428592 0.000001
vn -0.898947 0.438058 0.000000
vn -0.898947 0.438058 0.000000
vn 0.764612 -0.644491 0.000000
vn 0.764612 -0.644491 0.000000
vn -0.728109 0.685461 -0.000001
vn -0.728109 0.685461 -0.000001
vn 0.584996 -0.811036 0.000000
vn 0.584996 -0.811036 0.000000
vn 0.333311 -0.942817 0.000000
vn 0.333311 -0.942817 0.000000
vn -0.470086 0.882620 -0.000001
vn -0.470086 0.882620 -0.000001
vn -1.000000 0.000000 0.000000
vn -1.000000 0.000000 0.000000
vn -1.000000 0.000000 0.000000
vn -1.000000 0.000000 0.000000
vn 0.197894 -0.980223 0.000001
vn 0.197894 -0.980223 0.000001
vn -0.316991 0.948429 -0.000001
vn -0.316991 0.948428 -0.000001
s off
g polySurface649
usemtl lambert2SG
f 14/1/1 15/2/2 16/3/3 17/4/4
f 18/5/5 19/6/6 15/2/7 14/1/8
f 20/7/9 21/8/10 19/6/11 18/5/12
f 22/9/13 21/8/14 20/7/15
f 23/10/16 24/11/17 21/8/18 22/9/19
f 26/12/20 25/13/21 24/11/22 23/10/23
f 7/14/24 8/15/25 9/16/26 10/17/27
f 6/18/28 7/14/29 10/17/30 11/19/31
f 5/20/32 6/18/33 11/19/34 12/21/35
f 4/22/36 5/20/37 12/21/38
f 3/23/39 4/22/40 12/21/41 13/24/42
f 2/25/43 3/23/44 13/24/45 1/26/46
s 1
f 10/27/47 9/28/48 16/29/49 15/30/50
s off
f 9/28/51 8/31/52 17/32/53 16/29/54
s 2
f 8/33/55 7/27/56 14/30/57 17/34/58
s 1
f 11/35/59 10/36/47 15/2/50 19/6/60
s 2
f 7/37/56 6/38/61 18/5/62 14/1/57
s 1
f 12/39/63 11/35/59 19/6/60 21/8/64
s 2
f 6/38/61 5/40/65 20/7/66 18/5/62
f 5/40/65 4/41/67 22/9/68 20/7/66
s 1
f 13/42/69 12/39/63 21/8/64 24/11/70
s 2
f 4/41/67 3/43/71 23/10/72 22/9/68
s off
f 2/44/73 1/45/74 25/13/75 26/12/76
s 1
f 1/45/77 13/42/69 24/11/70 25/13/78
s 2
f 3/43/71 2/44/79 26/12/80 23/10/72
s off
f 39/46/81 40/47/82 41/48/83 42/49/84
f 43/50/85 44/51/86 40/47/87 39/46/88
f 45/52/89 44/51/90 46/53/91
f 46/53/92 44/51/93 43/50/94
f 47/54/95 48/55/96 44/51/97 45/52/98
f 50/56/99 49/57/100 48/55/101 47/54/102
f 33/58/103 34/59/104 35/60/105 36/61/106
f 32/62/107 33/58/108 36/61/109 37/63/110
f 30/64/111 31/65/112 37/63/113
f 31/65/114 32/62/115 37/63/116
f 29/66/117 30/64/118 37/63/119 38/67/120
f 28/68/121 29/66/122 38/67/123 27/69/124
f 36/70/125 35/71/126 41/72/127 40/73/128
f 35/74/129 34/75/130 42/76/131 41/77/132
f 34/78/133 33/70/134 39/73/135 42/79/136
f 37/75/137 36/80/138 40/81/139 44/76/140
f 33/82/141 32/78/142 43/79/143 39/83/144
s 3
f 31/80/145 30/84/146 45/85/147 46/81/148
s off
f 32/86/149 31/82/150 46/83/151 43/87/152
s 4
f 38/84/153 37/88/154 44/89/155 48/85/156
s 3
f 30/90/146 29/86/157 47/87/158 45/91/147
s off
f 28/88/159 27/92/160 49/93/161 50/89/162
s 4
f 27/94/163 38/90/153 48/91/156 49/95/164
s 3
f 47/96/158 29/97/157 28/98/165 50/99/166
s off
f 75/100/167 76/101/168 77/102/169
f 75/100/170 77/102/171 78/103/172 79/104/173
f 80/105/174 81/106/175 76/101/176 75/100/177
f 82/107/178 83/108/179 81/106/180 80/105/181
f 84/109/182 85/110/183 83/108/184 82/107/185
f 86/111/186 87/112/187 85/110/188 84/109/189
f 88/113/190 89/114/191 87/112/192 86/111/193
f 90/115/194 91/116/195 89/114/196 88/113/197
f 92/117/198 93/118/199 91/116/200 90/115/201
f 92/117/202 94/119/203 93/118/204
f 95/120/205 96/121/206 94/119/207 92/117/208
f 98/122/209 97/123/210 96/121/211 95/120/212
f 74/124/213 63/125/214 64/126/215
f 74/124/216 53/127/217 54/128/218 63/125/219
f 62/129/220 74/124/221 64/126/222 65/130/223
f 61/131/224 62/129/225 65/130/226 66/132/227
f 60/133/228 61/131/229 66/132/230 67/134/231
f 59/135/232 60/133/233 67/134/234 68/136/235
f 58/137/236 59/135/237 68/136/238 69/138/239
f 57/139/240 58/137/241 69/138/242 70/140/243
f 56/141/244 57/139/245 70/140/246 71/142/247
f 56/141/248 71/142/249 72/143/250
f 55/144/251 56/141/252 72/143/253 73/145/254
f 52/146/255 55/144/256 73/145/257 51/147/258
s 5
f 64/148/259 63/149/260 77/102/261 76/101/262
f 63/150/260 54/151/263 78/152/264 77/153/261
s off
f 54/151/265 53/154/266 79/155/267 78/152/268
s 6
f 53/154/269 74/156/270 75/157/271 79/155/272
s 5
f 65/158/273 64/159/259 76/160/262 81/161/274
s 6
f 74/159/270 62/162/275 80/163/276 75/160/271
s 5
f 66/162/277 65/164/273 81/165/274 83/163/278
s 6
f 62/166/275 61/150/279 82/153/280 80/167/276
s 5
f 67/156/281 66/168/277 83/169/278 85/157/282
s 6
f 61/170/279 60/171/283 84/172/284 82/173/280
s 5
f 68/168/285 67/170/281 85/173/282 87/169/286
s 6
f 60/174/283 59/166/287 86/167/288 84/175/284
s 5
f 69/171/289 68/176/285 87/177/286 89/172/290
s 6
f 59/178/287 58/179/291 88/180/292 86/181/288
s 5
f 70/179/293 69/174/289 89/175/290 91/180/294
s 6
f 58/176/291 57/182/295 90/183/296 88/177/292
s 5
f 71/182/297 70/178/293 91/181/294 93/183/298
s 6
f 57/149/295 56/184/299 92/103/300 90/102/296
s 5
f 72/184/301 71/185/297 93/104/298 94/103/302
f 73/185/303 72/186/301 94/100/302 96/104/304
s 6
f 56/187/299 55/148/305 95/101/306 92/106/300
s off
f 52/186/307 51/188/308 97/105/309 98/100/310
s 5
f 51/189/311 73/187/303 96/106/304 97/108/312
s 6
f 55/188/305 52/190/313 98/107/314 95/105/306
