<svg width="13" height="12" viewBox="0 0 13 12" fill="none" xmlns="http://www.w3.org/2000/svg">
<path d="M12.423 5.53125H7.3047V0.46875C7.3047 0.209859 7.09252 0 6.83078 0C6.56904 0 6.35686 0.209859 6.35686 0.46875V5.53125H1.23856C0.976821 5.53125 0.764648 5.74111 0.764648 6C0.764648 6.25889 0.976821 6.46875 1.23856 6.46875H6.35686V11.5312C6.35686 11.7901 6.56904 12 6.83078 12C7.09252 12 7.3047 11.7901 7.3047 11.5312V6.46875H12.423C12.6847 6.46875 12.8969 6.25889 12.8969 6C12.8969 5.74111 12.6847 5.53125 12.423 5.53125Z" fill="white"/>
</svg>
