<svg width="32" height="32" viewBox="0 0 32 32" fill="none" xmlns="http://www.w3.org/2000/svg">
<g clip-path="url(#clip0)">
<path d="M22.7145 21.625C22.664 21.5327 22.5896 21.4558 22.4991 21.4022C22.4086 21.3486 22.3054 21.3203 22.2002 21.3203C22.095 21.3203 21.9918 21.3486 21.9013 21.4022C21.8108 21.4558 21.7364 21.5327 21.6859 21.625L20.6208 23.5781L19.5416 19.6979C19.4958 19.5532 19.3958 19.4319 19.2624 19.3595C19.129 19.2872 18.9728 19.2694 18.8266 19.3098C18.6803 19.3503 18.5555 19.446 18.4784 19.5766C18.4012 19.7073 18.3778 19.8628 18.4129 20.0104L18.8572 21.6104H18.101C18.0226 21.608 17.9445 21.6215 17.8714 21.6498C17.7983 21.6782 17.7317 21.721 17.6754 21.7756C17.6191 21.8302 17.5744 21.8956 17.5438 21.9678C17.5133 22.04 17.4976 22.1176 17.4976 22.1961C17.4976 22.2745 17.5133 22.3521 17.5438 22.4243C17.5744 22.4965 17.6191 22.5619 17.6754 22.6165C17.7317 22.6711 17.7983 22.7139 17.8714 22.7423C17.9445 22.7706 18.0226 22.7841 18.101 22.7817H19.1848L19.8791 25.2817C19.9105 25.3939 19.9746 25.4941 20.0632 25.5696C20.1518 25.6452 20.261 25.6926 20.3767 25.7058C20.4924 25.7191 20.6094 25.6975 20.7128 25.644C20.8162 25.5904 20.9013 25.5073 20.9572 25.4052L22.2004 23.127L23.4431 25.4052C23.4991 25.5073 23.5842 25.5904 23.6876 25.644C23.791 25.6975 23.908 25.7191 24.0237 25.7058C24.1394 25.6926 24.2485 25.6452 24.3371 25.5696C24.4258 25.4941 24.4899 25.3939 24.5213 25.2817L25.2155 22.7817H26.2999C26.4522 22.7772 26.5968 22.7135 26.7029 22.6042C26.809 22.4948 26.8684 22.3484 26.8684 22.1961C26.8684 22.0437 26.809 21.8973 26.7029 21.788C26.5968 21.6786 26.4522 21.6149 26.2999 21.6104H25.5411L25.9853 20.0104C26.0233 19.8619 26.0016 19.7044 25.9248 19.5718C25.848 19.4392 25.7222 19.3419 25.5745 19.301C25.4268 19.2601 25.2689 19.2788 25.1348 19.353C25.0007 19.4272 24.901 19.551 24.8572 19.6979L23.7796 23.577L22.7145 21.625Z" fill="black"/>
<path d="M22.1105 29.3333C18.1283 29.3333 14.8887 26.0932 14.8887 22.1109C14.8887 18.1286 18.1283 14.889 22.1105 14.889C26.0928 14.889 29.3329 18.1286 29.3329 22.1109C29.3329 26.0932 26.0928 29.3333 22.1105 29.3333ZM22.1105 16C20.9018 16 19.7202 16.3584 18.7151 17.03C17.7101 17.7015 16.9268 18.656 16.4642 19.7728C16.0017 20.8895 15.8807 22.1184 16.1166 23.3039C16.3524 24.4894 16.9345 25.5784 17.7893 26.4331C18.644 27.2877 19.733 27.8698 20.9186 28.1055C22.1041 28.3413 23.3329 28.2202 24.4496 27.7575C25.5664 27.2949 26.5208 26.5115 27.1923 25.5064C27.8637 24.5013 28.2221 23.3197 28.222 22.1109C28.2199 20.4907 27.5754 18.9375 26.4297 17.7919C25.284 16.6463 23.7307 16.0019 22.1105 16V16Z" fill="black"/>
<path d="M13.2222 26H5.44411C4.70761 25.9994 4.00144 25.7066 3.48065 25.1858C2.95987 24.665 2.66706 23.9589 2.6665 23.2224L2.6665 7.66663C2.66706 6.93013 2.95987 6.22396 3.48065 5.70317C4.00144 5.18239 4.70761 4.88957 5.44411 4.88902H5.99984V4.33329C5.99984 3.89127 6.17543 3.46734 6.48799 3.15478C6.80055 2.84222 7.22448 2.66663 7.6665 2.66663H13.2222C13.6643 2.66663 14.0882 2.84222 14.4007 3.15478C14.7133 3.46734 14.8889 3.89127 14.8889 4.33329V4.88902H15.4441C16.1807 4.88957 16.8869 5.18237 17.4077 5.70314C17.9286 6.22391 18.2215 6.93008 18.2222 7.66663V13.2224C18.2222 13.3697 18.1637 13.5111 18.0595 13.6153C17.9552 13.7195 17.8139 13.7781 17.6665 13.7781C17.5191 13.7781 17.3778 13.7195 17.2735 13.6153C17.1693 13.5111 17.1108 13.3697 17.1108 13.2224V7.66663C17.1108 7.2246 16.9352 6.80068 16.6226 6.48811C16.3101 6.17555 15.8861 5.99996 15.4441 5.99996H14.3332C14.1858 5.99996 14.0444 5.94141 13.9402 5.83719C13.836 5.73297 13.7774 5.59162 13.7774 5.44423V4.33329C13.777 4.18612 13.7184 4.04509 13.6144 3.94097C13.5104 3.83686 13.3694 3.77811 13.2222 3.77756H7.6665C7.51924 3.77798 7.37813 3.83666 7.274 3.94079C7.16987 4.04492 7.11119 4.18603 7.11078 4.33329V5.44423C7.11078 5.59153 7.0523 5.7328 6.94819 5.83701C6.84408 5.94121 6.70286 5.99982 6.55557 5.99996H5.44411C5.00208 5.99996 4.57816 6.17555 4.2656 6.48811C3.95304 6.80068 3.77744 7.2246 3.77744 7.66663V23.2224C3.77744 23.6644 3.95304 24.0883 4.2656 24.4009C4.57816 24.7134 5.00208 24.889 5.44411 24.889H13.2222C13.3666 24.8934 13.5036 24.9539 13.6042 25.0576C13.7047 25.1613 13.761 25.3 13.761 25.4445C13.761 25.5889 13.7047 25.7277 13.6042 25.8314C13.5036 25.9351 13.3666 25.9955 13.2222 26V26Z" fill="black"/>
<path d="M9.88892 19.3333C9.7884 19.3333 9.68977 19.306 9.60353 19.2544C9.51729 19.2027 9.44669 19.1286 9.39923 19.04C9.35177 18.9514 9.32923 18.8515 9.33402 18.7511C9.33881 18.6507 9.37074 18.5535 9.42642 18.4698L11.0723 16H8.77746C8.67696 15.9997 8.57843 15.9721 8.49232 15.9203C8.40621 15.8685 8.33573 15.7943 8.28836 15.7056C8.241 15.617 8.21851 15.5172 8.22329 15.4168C8.22806 15.3164 8.25992 15.2192 8.31548 15.1354L10.5379 11.8021C10.5777 11.7401 10.6295 11.6867 10.6902 11.6449C10.7509 11.6032 10.8193 11.5739 10.8914 11.5588C10.9635 11.5438 11.0379 11.5432 11.1103 11.5572C11.1826 11.5712 11.2515 11.5994 11.3128 11.6403C11.3741 11.6811 11.4266 11.7338 11.4674 11.7952C11.5082 11.8565 11.5363 11.9254 11.5502 11.9978C11.5641 12.0701 11.5634 12.1445 11.5482 12.2166C11.5331 12.2887 11.5037 12.3571 11.4618 12.4177L9.81653 14.8891H12.1108C12.2113 14.8892 12.3099 14.9166 12.3962 14.9683C12.4824 15.0201 12.5529 15.0942 12.6004 15.1828C12.6478 15.2715 12.6704 15.3713 12.6656 15.4717C12.6608 15.5721 12.6289 15.6694 12.5733 15.7531L10.3509 19.0865C10.3001 19.1624 10.2314 19.2247 10.1508 19.2678C10.0702 19.3108 9.98029 19.3333 9.88892 19.3333V19.3333Z" fill="black"/>
</g>
<g clip-path="url(#clip1)">
<path d="M22.7145 21.625C22.664 21.5327 22.5896 21.4558 22.4991 21.4022C22.4086 21.3486 22.3054 21.3203 22.2002 21.3203C22.095 21.3203 21.9918 21.3486 21.9013 21.4022C21.8108 21.4558 21.7364 21.5327 21.6859 21.625L20.6208 23.5781L19.5416 19.6979C19.4958 19.5532 19.3958 19.4319 19.2624 19.3595C19.129 19.2872 18.9728 19.2694 18.8266 19.3098C18.6803 19.3503 18.5555 19.446 18.4784 19.5766C18.4012 19.7073 18.3778 19.8628 18.4129 20.0104L18.8572 21.6104H18.101C18.0226 21.608 17.9445 21.6215 17.8714 21.6498C17.7983 21.6782 17.7317 21.721 17.6754 21.7756C17.6191 21.8302 17.5744 21.8956 17.5438 21.9678C17.5133 22.04 17.4976 22.1176 17.4976 22.1961C17.4976 22.2745 17.5133 22.3521 17.5438 22.4243C17.5744 22.4965 17.6191 22.5619 17.6754 22.6165C17.7317 22.6711 17.7983 22.7139 17.8714 22.7423C17.9445 22.7706 18.0226 22.7841 18.101 22.7817H19.1848L19.8791 25.2817C19.9105 25.3939 19.9746 25.4941 20.0632 25.5696C20.1518 25.6452 20.261 25.6926 20.3767 25.7058C20.4924 25.7191 20.6094 25.6975 20.7128 25.644C20.8162 25.5904 20.9013 25.5073 20.9572 25.4052L22.2004 23.127L23.4431 25.4052C23.4991 25.5073 23.5842 25.5904 23.6876 25.644C23.791 25.6975 23.908 25.7191 24.0237 25.7058C24.1394 25.6926 24.2485 25.6452 24.3371 25.5696C24.4258 25.4941 24.4899 25.3939 24.5213 25.2817L25.2155 22.7817H26.2999C26.4522 22.7772 26.5968 22.7135 26.7029 22.6042C26.809 22.4948 26.8684 22.3484 26.8684 22.1961C26.8684 22.0437 26.809 21.8973 26.7029 21.788C26.5968 21.6786 26.4522 21.6149 26.2999 21.6104H25.5411L25.9853 20.0104C26.0233 19.8619 26.0016 19.7044 25.9248 19.5718C25.848 19.4392 25.7222 19.3419 25.5745 19.301C25.4268 19.2601 25.2689 19.2788 25.1348 19.353C25.0007 19.4272 24.901 19.551 24.8572 19.6979L23.7796 23.577L22.7145 21.625Z" fill="white"/>
<path d="M22.1105 29.3333C18.1283 29.3333 14.8887 26.0932 14.8887 22.1109C14.8887 18.1286 18.1283 14.889 22.1105 14.889C26.0928 14.889 29.3329 18.1286 29.3329 22.1109C29.3329 26.0932 26.0928 29.3333 22.1105 29.3333ZM22.1105 16C20.9018 16 19.7202 16.3584 18.7151 17.03C17.7101 17.7015 16.9268 18.656 16.4642 19.7728C16.0017 20.8895 15.8807 22.1184 16.1166 23.3039C16.3524 24.4894 16.9345 25.5784 17.7893 26.4331C18.644 27.2877 19.733 27.8698 20.9186 28.1055C22.1041 28.3413 23.3329 28.2202 24.4496 27.7575C25.5664 27.2949 26.5208 26.5115 27.1923 25.5064C27.8637 24.5013 28.2221 23.3197 28.222 22.1109C28.2199 20.4907 27.5754 18.9375 26.4297 17.7919C25.284 16.6463 23.7307 16.0019 22.1105 16V16Z" fill="white"/>
<path d="M13.2222 26H5.44411C4.70761 25.9994 4.00144 25.7066 3.48065 25.1858C2.95987 24.665 2.66706 23.9589 2.6665 23.2224L2.6665 7.66663C2.66706 6.93013 2.95987 6.22396 3.48065 5.70317C4.00144 5.18239 4.70761 4.88957 5.44411 4.88902H5.99984V4.33329C5.99984 3.89127 6.17543 3.46734 6.48799 3.15478C6.80055 2.84222 7.22448 2.66663 7.6665 2.66663H13.2222C13.6643 2.66663 14.0882 2.84222 14.4007 3.15478C14.7133 3.46734 14.8889 3.89127 14.8889 4.33329V4.88902H15.4441C16.1807 4.88957 16.8869 5.18237 17.4077 5.70314C17.9286 6.22391 18.2215 6.93008 18.2222 7.66663V13.2224C18.2222 13.3697 18.1637 13.5111 18.0595 13.6153C17.9552 13.7195 17.8139 13.7781 17.6665 13.7781C17.5191 13.7781 17.3778 13.7195 17.2735 13.6153C17.1693 13.5111 17.1108 13.3697 17.1108 13.2224V7.66663C17.1108 7.2246 16.9352 6.80068 16.6226 6.48811C16.3101 6.17555 15.8861 5.99996 15.4441 5.99996H14.3332C14.1858 5.99996 14.0444 5.94141 13.9402 5.83719C13.836 5.73297 13.7774 5.59162 13.7774 5.44423V4.33329C13.777 4.18612 13.7184 4.04509 13.6144 3.94097C13.5104 3.83686 13.3694 3.77811 13.2222 3.77756H7.6665C7.51924 3.77798 7.37813 3.83666 7.274 3.94079C7.16987 4.04492 7.11119 4.18603 7.11078 4.33329V5.44423C7.11078 5.59153 7.0523 5.7328 6.94819 5.83701C6.84408 5.94121 6.70286 5.99982 6.55557 5.99996H5.44411C5.00208 5.99996 4.57816 6.17555 4.2656 6.48811C3.95304 6.80068 3.77744 7.2246 3.77744 7.66663V23.2224C3.77744 23.6644 3.95304 24.0883 4.2656 24.4009C4.57816 24.7134 5.00208 24.889 5.44411 24.889H13.2222C13.3666 24.8934 13.5036 24.9539 13.6042 25.0576C13.7047 25.1613 13.761 25.3 13.761 25.4445C13.761 25.5889 13.7047 25.7277 13.6042 25.8314C13.5036 25.9351 13.3666 25.9955 13.2222 26V26Z" fill="white"/>
<path d="M9.88892 19.3333C9.7884 19.3333 9.68977 19.306 9.60353 19.2544C9.51729 19.2027 9.44669 19.1286 9.39923 19.04C9.35177 18.9514 9.32923 18.8515 9.33402 18.7511C9.33881 18.6507 9.37074 18.5535 9.42642 18.4698L11.0723 16H8.77746C8.67696 15.9997 8.57843 15.9721 8.49232 15.9203C8.40621 15.8685 8.33573 15.7943 8.28836 15.7056C8.241 15.617 8.21851 15.5172 8.22329 15.4168C8.22806 15.3164 8.25992 15.2192 8.31548 15.1354L10.5379 11.8021C10.5777 11.7401 10.6295 11.6867 10.6902 11.6449C10.7509 11.6032 10.8193 11.5739 10.8914 11.5588C10.9635 11.5438 11.0379 11.5432 11.1103 11.5572C11.1826 11.5712 11.2515 11.5994 11.3128 11.6403C11.3741 11.6811 11.4266 11.7338 11.4674 11.7952C11.5082 11.8565 11.5363 11.9254 11.5502 11.9978C11.5641 12.0701 11.5634 12.1445 11.5482 12.2166C11.5331 12.2887 11.5037 12.3571 11.4618 12.4177L9.81653 14.8891H12.1108C12.2113 14.8892 12.3099 14.9166 12.3962 14.9683C12.4824 15.0201 12.5529 15.0942 12.6004 15.1828C12.6478 15.2715 12.6704 15.3713 12.6656 15.4717C12.6608 15.5721 12.6289 15.6694 12.5733 15.7531L10.3509 19.0865C10.3001 19.1624 10.2314 19.2247 10.1508 19.2678C10.0702 19.3108 9.98029 19.3333 9.88892 19.3333V19.3333Z" fill="white"/>
</g>
<defs>
<clipPath id="clip0">
<rect width="26.6667" height="26.6667" fill="white" transform="translate(2.6665 2.66663)"/>
</clipPath>
<clipPath id="clip1">
<rect width="26.6667" height="26.6667" fill="white" transform="translate(2.6665 2.66663)"/>
</clipPath>
</defs>
</svg>
