<svg width="48" height="48" viewBox="0 0 48 48" fill="none" xmlns="http://www.w3.org/2000/svg">
<path fill-rule="evenodd" clip-rule="evenodd" d="M24 27C25.6569 27 27 25.6569 27 24C27 22.3431 25.6569 21 24 21C22.3431 21 21 22.3431 21 24C21 25.6569 22.3431 27 24 27Z" stroke="white" stroke-width="2" stroke-linecap="round" stroke-linejoin="round"/>
<path fill-rule="evenodd" clip-rule="evenodd" d="M31.4 27C31.1277 27.6171 31.2583 28.3378 31.73 28.82L31.79 28.88C32.1656 29.2551 32.3766 29.7642 32.3766 30.295C32.3766 30.8258 32.1656 31.3349 31.79 31.71C31.4149 32.0856 30.9058 32.2966 30.375 32.2966C29.8442 32.2966 29.3351 32.0856 28.96 31.71L28.9 31.65C28.4178 31.1783 27.6971 31.0477 27.08 31.32C26.4755 31.5791 26.0826 32.1724 26.08 32.83V33C26.08 34.1046 25.1846 35 24.08 35C22.9754 35 22.08 34.1046 22.08 33V32.91C22.0642 32.2327 21.6359 31.6339 21 31.4C20.3829 31.1277 19.6622 31.2583 19.18 31.73L19.12 31.79C18.7449 32.1656 18.2358 32.3766 17.705 32.3766C17.1742 32.3766 16.6651 32.1656 16.29 31.79C15.9144 31.4149 15.7034 30.9058 15.7034 30.375C15.7034 29.8442 15.9144 29.3351 16.29 28.96L16.35 28.9C16.8217 28.4178 16.9523 27.6971 16.68 27.08C16.4209 26.4755 15.8276 26.0826 15.17 26.08H15C13.8954 26.08 13 25.1846 13 24.08C13 22.9754 13.8954 22.08 15 22.08H15.09C15.7673 22.0642 16.3661 21.6359 16.6 21C16.8723 20.3829 16.7417 19.6622 16.27 19.18L16.21 19.12C15.8344 18.7449 15.6234 18.2358 15.6234 17.705C15.6234 17.1742 15.8344 16.6651 16.21 16.29C16.5851 15.9144 17.0942 15.7034 17.625 15.7034C18.1558 15.7034 18.6649 15.9144 19.04 16.29L19.1 16.35C19.5822 16.8217 20.3029 16.9523 20.92 16.68H21C21.6045 16.4209 21.9974 15.8276 22 15.17V15C22 13.8954 22.8954 13 24 13C25.1046 13 26 13.8954 26 15V15.09C26.0026 15.7476 26.3955 16.3409 27 16.6C27.6171 16.8723 28.3378 16.7417 28.82 16.27L28.88 16.21C29.2551 15.8344 29.7642 15.6234 30.295 15.6234C30.8258 15.6234 31.3349 15.8344 31.71 16.21C32.0856 16.5851 32.2966 17.0942 32.2966 17.625C32.2966 18.1558 32.0856 18.6649 31.71 19.04L31.65 19.1C31.1783 19.5822 31.0477 20.3029 31.32 20.92V21C31.5791 21.6045 32.1724 21.9974 32.83 22H33C34.1046 22 35 22.8954 35 24C35 25.1046 34.1046 26 33 26H32.91C32.2524 26.0026 31.6591 26.3955 31.4 27Z" stroke="white" stroke-width="2" stroke-linecap="round" stroke-linejoin="round"/>
</svg>
