<svg width="48" height="48" viewBox="0 0 48 48" fill="none"
	xmlns="http://www.w3.org/2000/svg">
	<path class="st0" d="M29.7,31.1c1,0,1.8-0.8,1.8-1.8c0-1-0.8-1.8-1.8-1.8c-1,0-1.8,0.8-1.8,1.8C27.9,30.2,28.7,31.1,29.7,31.1z"/>
	<path class="st0" d="M34.3,31.1c-0.2,0.4-0.1,0.8,0.2,1.1l0,0c0.2,0.2,0.4,0.5,0.4,0.9s-0.1,0.6-0.4,0.9c-0.2,0.2-0.5,0.4-0.9,0.4
	s-0.6-0.1-0.9-0.4l0,0c-0.3-0.3-0.7-0.4-1.1-0.2c-0.4,0.2-0.6,0.5-0.6,0.9v0.1c0,0.7-0.5,1.2-1.2,1.2c-0.7,0-1.2-0.5-1.2-1.2v-0.1
	c0-0.4-0.3-0.8-0.7-0.9c-0.4-0.2-0.8-0.1-1.1,0.2l0,0c-0.2,0.2-0.5,0.4-0.9,0.4c-0.3,0-0.6-0.1-0.9-0.4c-0.2-0.2-0.4-0.5-0.4-0.9
	c0-0.3,0.1-0.6,0.4-0.9l0,0c0.3-0.3,0.4-0.7,0.2-1.1c-0.2-0.4-0.5-0.6-0.9-0.6h-0.1c-0.7,0-1.2-0.5-1.2-1.2c0-0.7,0.5-1.2,1.2-1.2
	h0.1c0.4,0,0.8-0.3,0.9-0.7c0.2-0.4,0.1-0.8-0.2-1.1l0,0c-0.2-0.2-0.4-0.5-0.4-0.9c0-0.3,0.1-0.6,0.4-0.9c0.2-0.2,0.5-0.4,0.9-0.4
	s0.6,0.1,0.9,0.4l0,0c0.3,0.3,0.7,0.4,1.1,0.2h0c0.4-0.2,0.6-0.5,0.6-0.9v-0.1c0-0.7,0.5-1.2,1.2-1.2S31,23,31,23.7v0.1
	c0,0.4,0.2,0.8,0.6,0.9c0.4,0.2,0.8,0.1,1.1-0.2l0,0c0.2-0.2,0.5-0.4,0.9-0.4c0.3,0,0.6,0.1,0.9,0.4c0.2,0.2,0.4,0.5,0.4,0.9
	c0,0.3-0.1,0.6-0.4,0.9l0,0c-0.3,0.3-0.4,0.7-0.2,1.1v0c0.2,0.4,0.5,0.6,0.9,0.6h0.1c0.7,0,1.2,0.5,1.2,1.2c0,0.7-0.5,1.2-1.2,1.2
	h-0.1C34.8,30.4,34.4,30.7,34.3,31.1z"/>
	<path class="st0" d="M28.7,20.2c0,0,0.9-6.6-5.2-7c0,0-5.5-0.4-5.5,6.4c0,0-0.2,4,2.6,5.4c0,0-7.6,1.2-7.9,7.9h8.1"/>
</svg>
