<svg width="24" height="24" viewBox="0 0 24 24" fill="none" xmlns="http://www.w3.org/2000/svg">
<path d="M6.36096 4.06994C6.53772 4.35695 6.84447 4.51501 7.15849 4.51501C7.32588 4.51501 7.49538 4.47006 7.64828 4.37589C8.08825 4.10486 8.22526 3.52853 7.95423 3.08856L7.25186 1.94828C6.98088 1.50832 6.40446 1.37139 5.96454 1.64233C5.52457 1.91336 5.3876 2.48969 5.65859 2.92966L6.36096 4.06994Z" fill="white"/>
<path d="M3.14991 16.0463L1.9628 16.7018C1.51046 16.9516 1.34626 17.5208 1.5961 17.9731C1.76672 18.2821 2.08632 18.4566 2.41599 18.4566C2.56894 18.4566 2.72405 18.4191 2.86744 18.3399L4.05455 17.6843C4.50689 17.4345 4.6711 16.8653 4.42125 16.413C4.17146 15.9607 3.60235 15.7965 3.14991 16.0463Z" fill="white"/>
<path d="M11.9762 3.29858C12.4929 3.29858 12.9118 2.8797 12.9118 2.36295V0.959518C12.9118 0.442769 12.4929 0.0238953 11.9762 0.0238953C11.4594 0.0238953 11.0405 0.442769 11.0405 0.959518V2.36295C11.0405 2.87966 11.4594 3.29858 11.9762 3.29858Z" fill="white"/>
<path d="M3.27473 12C3.27473 11.4832 2.85585 11.0643 2.33911 11.0643H0.935623C0.418874 11.0643 0 11.4832 0 12C0 12.5167 0.418874 12.9356 0.935623 12.9356H2.33906C2.85585 12.9356 3.27473 12.5168 3.27473 12Z" fill="white"/>
<path d="M11.1373 17.3624C11.0838 17.354 11.0306 17.345 10.9776 17.3351C8.41181 16.8584 6.54952 14.6146 6.54952 12C6.54952 9.30819 8.55604 6.99782 11.217 6.62587C11.2828 6.61663 11.3498 6.60857 11.4165 6.60173C11.9306 6.54913 12.3046 6.08985 12.2521 5.57573C12.1995 5.0617 11.7402 4.6875 11.2261 4.74014C11.1366 4.74928 11.0463 4.7602 10.9579 4.77257C9.23029 5.01407 7.64264 5.87268 6.48731 7.19029C5.32064 8.52074 4.67822 10.2288 4.67822 12C4.67822 15.516 7.18373 18.5335 10.6356 19.1749C10.7062 19.188 10.7784 19.2003 10.8502 19.2115C10.8989 19.2191 10.9471 19.2228 10.9949 19.2228C11.4483 19.2227 11.8466 18.8925 11.9183 18.4305C11.9976 17.9199 11.6479 17.4417 11.1373 17.3624Z" fill="white"/>
<path d="M23.8029 10.3571C23.4465 9.58136 22.6846 9.09944 21.8145 9.09944H20.1325L23.8626 2.89156C24.0363 2.60253 24.041 2.24239 23.8749 1.94895C23.7089 1.65551 23.3977 1.47406 23.0606 1.47406H17.4964C17.1635 1.47406 16.8556 1.65101 16.688 1.93859L11.2317 11.3018C11.2273 11.3093 11.223 11.3169 11.2189 11.3245C10.7393 12.203 10.758 13.2413 11.2687 14.1019C11.7794 14.9626 12.6818 15.4764 13.6826 15.4764H14.598L12.2342 22.0604C12.0513 22.4951 12.0826 22.9531 12.3223 23.3235C12.5868 23.7326 13.0717 23.9761 13.6207 23.9761C13.6232 23.9761 13.6256 23.9761 13.6281 23.9761C14.0943 23.9743 14.545 23.7894 14.8646 23.4689C14.8929 23.4405 14.9193 23.4104 14.9437 23.3787L20.0578 16.7285C20.3728 16.3189 20.2961 15.7314 19.8864 15.4165C19.4768 15.1014 18.8894 15.1781 18.5744 15.5878L14.7701 20.5347L16.8086 14.857C16.9116 14.5703 16.8685 14.2516 16.6933 14.0025C16.518 13.7534 16.2326 13.6051 15.928 13.6051H13.6825C13.2016 13.6051 12.9596 13.2848 12.8778 13.147C12.7967 13.0103 12.6334 12.6489 12.856 12.2309L18.0341 3.34535H21.4069L17.6768 9.55328C17.5032 9.84231 17.4985 10.2024 17.6645 10.4959C17.8305 10.7894 18.1417 10.9708 18.4788 10.9708H21.8145C21.9981 10.9708 22.0737 11.0757 22.1024 11.1383C22.1361 11.2115 22.1533 11.3252 22.0447 11.4517C22.0424 11.4544 22.0401 11.4571 22.0378 11.4598L21.6536 11.9176C21.3214 12.3133 21.373 12.9035 21.7688 13.2357C22.1647 13.5679 22.7548 13.5163 23.087 13.1205L23.4681 12.6664C24.0281 12.0111 24.1564 11.1269 23.8029 10.3571Z" fill="white"/>
<path d="M4.16124 6.08913L3.01918 5.43419C2.57096 5.17718 1.99914 5.3321 1.74208 5.78036C1.48501 6.22863 1.63998 6.80041 2.08825 7.05747L3.23035 7.7124C3.37712 7.79654 3.5371 7.83658 3.69493 7.83658C4.01921 7.83653 4.33454 7.66769 4.50746 7.36623C4.76452 6.91797 4.60951 6.34619 4.16124 6.08913Z" fill="white"/>
<path d="M7.34855 19.4255C6.9023 19.1651 6.32935 19.3156 6.06882 19.7619L5.3852 20.9332C5.12477 21.3795 5.27537 21.9524 5.72167 22.2129C5.86998 22.2995 6.03226 22.3407 6.19243 22.3407C6.51418 22.3407 6.82745 22.1745 7.0014 21.8765L7.68502 20.7053C7.94546 20.2589 7.79485 19.686 7.34855 19.4255Z" fill="white"/>
</svg>
