

mtllib fore_3006_01.mtl
g default
v -1.400476 -2.575917 0.297267
v -1.272297 -2.575917 0.297267
v -1.983797 -3.404256 0.297267
v -1.983797 -3.548131 0.297267
v -1.429243 -3.548131 0.297267
v -1.429243 -3.854167 0.297267
v -1.272297 -3.854167 0.297267
v -1.272297 -3.548131 0.297267
v -1.099654 -3.548131 0.297267
v -1.099654 -3.404256 0.297267
v -1.272297 -3.404256 0.297267
v -1.430244 -3.402815 0.297267
v -1.430244 -2.829358 0.297267
v -1.828457 -3.402815 0.297267
v -1.272297 -2.575917 0.469155
v -1.272297 -3.404256 0.469155
v -1.430244 -2.829358 0.469155
v -1.430244 -3.402815 0.469155
v -1.400476 -2.575917 0.469155
v -1.983797 -3.404256 0.469155
v -1.828457 -3.402815 0.469155
v -1.983797 -3.548131 0.469155
v -1.429243 -3.548131 0.469155
v -1.099654 -3.404256 0.469155
v -1.272297 -3.548131 0.469155
v -1.099654 -3.548131 0.469155
v -1.272297 -3.854167 0.469155
v -1.429243 -3.854167 0.469155
vt 0.000000 0.000000
vt 1.000000 0.000000
vt 0.694037 0.190679
vt 0.001739 0.190679
vt 0.000000 0.000000
vt 1.000000 0.000000
vt 0.772981 0.364273
vt 0.000000 0.000000
vt 1.000000 0.000000
vt 0.910556 0.124544
vt 0.221451 0.120010
vt 0.000000 0.000000
vt 0.991483 0.000000
vt 1.000000 0.918230
vt 0.001804 0.262041
vt 0.719883 0.262041
vt 1.000000 0.000000
vt 0.000000 0.000000
vt 0.000000 0.833369
vt 1.000000 0.833369
vt 1.000000 0.000000
vt 0.000000 0.000000
vt 0.000000 0.000000
vt 1.000000 0.000000
vt 1.000000 0.512837
vt 0.000000 0.512837
vt 0.000000 0.000000
vt 0.920132 0.000000
vt 0.926973 0.993729
vt 0.016007 1.000000
vt 0.000000 0.000000
vt 0.001739 0.190679
vt 0.694037 0.190679
vt 1.000000 0.000000
vt 0.000000 0.000000
vt 0.772981 0.364273
vt 1.000000 0.000000
vt 0.000000 0.000000
vt 0.221451 0.120010
vt 0.910556 0.124544
vt 1.000000 0.000000
vt 0.000000 0.000000
vt 1.000000 0.918230
vt 0.991483 0.000000
vt 0.001804 0.262041
vt 0.000000 0.000000
vt 1.000000 0.000000
vt 0.719883 0.262041
vt 0.000000 0.833369
vt 0.000000 0.000000
vt 1.000000 0.000000
vt 1.000000 0.833369
vt 0.000000 0.000000
vt 0.000000 0.512837
vt 1.000000 0.512837
vt 1.000000 0.000000
vt 0.000000 0.000000
vt 0.016007 1.000000
vt 0.926973 0.993729
vt 0.920132 0.000000
vt 0.000000 0.000000
vt 1.000000 0.000000
vt 0.694037 0.190679
vt 0.001739 0.190679
vt 1.000000 0.000000
vt 0.772981 0.364273
vt 0.000000 0.000000
vt 1.000000 0.000000
vt 0.910556 0.124544
vt 0.221451 0.120010
vt 0.991483 0.000000
vt 1.000000 0.918230
vt 0.001804 0.262041
vt 0.719883 0.262041
vt 1.000000 0.000000
vt 0.000000 0.000000
vt 0.000000 0.833369
vt 1.000000 0.833369
vt 1.000000 0.000000
vt 0.000000 0.000000
vt 0.000000 0.000000
vt 1.000000 0.000000
vt 1.000000 0.512837
vt 0.000000 0.512837
vn -0.000000 -0.000000 1.000000
vn -0.000000 -0.000000 1.000000
vn -0.000000 -0.000000 1.000000
vn -0.000000 -0.000000 1.000000
vn 0.000001 -0.000000 1.000000
vn 0.000001 -0.000000 1.000000
vn 0.000001 -0.000000 1.000000
vn 0.000000 -0.000000 1.000000
vn 0.000000 -0.000000 1.000000
vn 0.000000 -0.000000 1.000000
vn 0.000000 -0.000000 1.000000
vn 0.000000 0.000000 1.000000
vn 0.000000 0.000000 1.000000
vn 0.000000 0.000000 1.000000
vn 0.000000 0.000000 1.000000
vn 0.000000 0.000000 1.000000
vn 0.000000 0.000000 1.000000
vn 0.000000 0.000000 1.000000
vn 0.000000 0.000000 1.000000
vn 0.000000 0.000000 1.000000
vn 0.000000 0.000000 1.000000
vn 0.000000 0.000000 1.000000
vn 0.000000 0.000000 1.000000
vn 0.000000 0.000000 1.000000
vn 0.000000 0.000000 1.000000
vn 0.000000 0.000000 1.000000
vn 0.000000 0.000000 1.000000
vn 0.000000 0.000000 1.000000
vn 0.000000 0.000000 1.000000
vn 0.000000 0.000000 1.000000
vn 0.000000 0.000000 -1.000000
vn 0.000000 0.000000 -1.000000
vn 0.000000 0.000000 -1.000000
vn 0.000000 0.000000 -1.000000
vn 0.000000 0.000000 -1.000000
vn 0.000000 0.000000 -1.000000
vn 0.000000 0.000000 -1.000000
vn 0.000000 0.000000 -1.000000
vn 0.000000 0.000000 -1.000000
vn 0.000000 0.000000 -1.000000
vn 0.000000 0.000000 -1.000000
vn -0.000000 0.000000 -1.000000
vn -0.000000 0.000000 -1.000000
vn -0.000000 0.000000 -1.000000
vn 0.000000 0.000000 -1.000000
vn 0.000000 0.000000 -1.000000
vn 0.000000 0.000000 -1.000000
vn 0.000000 0.000000 -1.000000
vn 0.000000 0.000000 -1.000000
vn 0.000000 0.000000 -1.000000
vn 0.000000 0.000000 -1.000000
vn 0.000000 0.000000 -1.000000
vn 0.000000 0.000000 -1.000000
vn 0.000000 0.000000 -1.000000
vn 0.000000 0.000000 -1.000000
vn 0.000000 0.000000 -1.000000
vn 0.000000 0.000000 -1.000000
vn 0.000000 0.000000 -1.000000
vn 0.000000 0.000000 -1.000000
vn 0.000000 0.000000 -1.000000
vn 1.000000 0.000000 0.000000
vn 1.000000 0.000000 0.000000
vn 1.000000 0.000000 0.000000
vn 1.000000 0.000000 0.000000
vn -1.000000 0.000000 0.000000
vn -1.000000 0.000000 0.000000
vn -1.000000 0.000000 0.000000
vn -1.000000 0.000000 0.000000
vn 0.000000 1.000000 0.000000
vn 0.000000 1.000000 0.000000
vn 0.000000 1.000000 0.000000
vn 0.000000 1.000000 0.000000
vn -0.817613 0.575768 0.000000
vn -0.817613 0.575768 0.000000
vn -0.817613 0.575768 0.000000
vn -0.817613 0.575768 0.000000
vn 0.821384 -0.570376 0.000000
vn 0.821384 -0.570376 0.000000
vn 0.821384 -0.570376 0.000000
vn 0.821384 -0.570376 0.000000
vn -1.000000 0.000000 0.000000
vn -1.000000 0.000000 0.000000
vn -1.000000 0.000000 0.000000
vn -1.000000 0.000000 0.000000
vn 0.000000 1.000000 0.000000
vn 0.000000 1.000000 0.000000
vn 0.000000 1.000000 0.000000
vn 0.000000 1.000000 0.000000
vn 0.000000 -1.000000 0.000000
vn 0.000000 -1.000000 0.000000
vn 0.000000 -1.000000 0.000000
vn 0.000000 -1.000000 0.000000
vn 0.000000 1.000000 0.000000
vn 0.000000 1.000000 0.000000
vn 0.000000 1.000000 0.000000
vn 0.000000 1.000000 0.000000
vn 0.000000 -1.000000 0.000000
vn 0.000000 -1.000000 0.000000
vn 0.000000 -1.000000 0.000000
vn 0.000000 -1.000000 0.000000
vn 1.000000 0.000000 0.000000
vn 1.000000 0.000000 0.000000
vn 1.000000 0.000000 0.000000
vn 1.000000 0.000000 0.000000
vn 1.000000 0.000000 0.000000
vn 1.000000 0.000000 0.000000
vn 1.000000 0.000000 0.000000
vn 1.000000 0.000000 0.000000
vn -1.000000 0.000000 0.000000
vn -1.000000 0.000000 0.000000
vn -1.000000 0.000000 0.000000
vn -1.000000 0.000000 0.000000
vn 0.000000 -1.000000 0.000000
vn 0.000000 -1.000000 0.000000
vn 0.000000 -1.000000 0.000000
vn 0.000000 -1.000000 0.000000
s off
g polySurface654 polySurface541
usemtl lambert2SG
f 16/1/1 15/2/2 17/3/3 18/4/4
f 17/5/5 15/6/6 19/7/7
f 19/8/8 20/9/9 21/10/10 17/11/11
f 21/12/12 20/13/13 22/14/14
f 18/15/15 21/16/16 22/17/17 23/18/18
f 24/19/19 16/20/20 25/21/21 26/22/22
f 27/23/23 25/24/24 23/25/25 28/26/26
f 18/27/27 23/28/28 25/29/29 16/30/30
f 11/31/31 12/32/32 13/33/33 2/34/34
f 13/35/35 1/36/36 2/37/37
f 1/38/38 13/39/39 14/40/40 3/41/41
f 14/42/42 4/43/43 3/44/44
f 12/45/45 5/46/46 4/47/47 14/48/48
f 10/49/49 9/50/50 8/51/51 11/52/52
f 7/53/53 6/54/54 5/55/55 8/56/56
f 12/57/57 11/58/58 8/59/59 5/60/60
f 11/61/61 2/62/62 15/2/63 16/1/64
f 13/63/65 12/64/66 18/4/67 17/3/68
f 2/65/69 1/66/70 19/7/71 15/6/72
f 1/67/73 3/68/74 20/9/75 19/8/76
f 14/69/77 13/70/78 17/11/79 21/10/80
f 3/71/81 4/72/82 22/14/83 20/13/84
f 12/73/85 14/74/86 21/16/87 18/15/88
f 4/75/89 5/76/90 23/18/91 22/17/92
f 10/77/93 11/78/94 16/20/95 24/19/96
f 8/79/97 9/80/98 26/22/99 25/21/100
f 9/80/101 10/77/102 24/19/103 26/22/104
f 7/81/105 8/82/106 25/24/107 27/23/108
f 5/83/109 6/84/110 28/26/111 23/25/112
f 6/84/113 7/81/114 27/23/115 28/26/116
