

mtllib G2_B.mtl
g default
v 135.406885 193.495209 -60.000000
v 129.211992 193.495209 -60.000000
v 129.211992 2.917633 -60.000000
v 135.406885 2.917625 -60.000000
v 136.474943 193.495209 -57.812092
v 136.474943 2.917625 -57.812092
v 148.626357 193.495209 -59.901299
v 148.626356 2.917633 -59.901299
v 129.052141 193.495209 -56.811623
v 129.052141 2.768608 -56.811623
v 134.743946 2.917625 -56.811623
v 134.743946 193.495209 -56.811623
v 148.626357 193.495209 -56.811623
v 148.626356 2.917633 -56.811623
v 156.979332 193.495209 -60.000000
v 156.979332 2.917633 -60.000000
v 156.979332 193.495209 -56.811619
v 156.979332 2.917633 -56.811623
v 178.551779 193.495209 -60.000000
v 184.746672 193.495209 -60.000000
v 184.746672 2.917633 -60.000000
v 178.551779 2.917625 -60.000000
v 177.483721 193.495209 -57.812092
v 177.483721 2.917625 -57.812092
v 165.332307 193.495209 -59.901299
v 165.332308 2.917633 -59.901299
v 184.906523 193.495209 -56.811623
v 184.906523 2.768608 -56.811623
v 179.214718 2.917625 -56.811623
v 179.214718 193.495209 -56.811623
v 165.332307 193.495209 -56.811623
v 165.332308 2.917633 -56.811623
v 183.307615 85.276474 -59.962036
v 179.578174 85.276474 -59.962036
v 179.578174 102.020554 -59.962036
v 183.307615 102.020554 -59.962036
v 183.307615 85.276474 -60.290802
v 179.578174 85.276474 -60.290802
v 179.578174 102.020554 -60.290802
v 183.307615 102.020554 -60.290802
v 180.483839 91.242165 -60.682800
v 182.525881 91.242165 -60.682800
v 182.525881 87.673737 -60.682800
v 182.015421 87.163284 -60.682800
v 180.994297 87.163284 -60.682800
v 180.483839 87.673737 -60.682800
v 180.994297 87.163284 -60.247360
v 182.015421 87.163284 -60.247360
v 180.483839 91.242149 -60.247360
v 182.525881 91.242149 -60.247360
v 182.525881 87.673737 -60.247360
v 180.483839 87.673737 -60.247360
v 182.525881 91.437943 -61.773468
v 180.483839 91.437943 -61.773468
v 180.483839 99.511070 -60.731506
v 180.994297 100.017319 -60.666161
v 182.015421 100.017319 -60.666161
v 182.525881 99.511070 -60.731506
v 182.015421 99.961578 -60.234299
v 180.994297 99.961578 -60.234299
v 182.525881 91.382217 -61.341599
v 180.483839 91.382217 -61.341599
v 180.483839 99.455330 -60.299644
v 182.525881 99.455330 -60.299644
vt 0.116348 0.908573
vt 0.135605 0.908573
vt 0.135605 0.995033
vt 0.116348 0.995033
vt 0.116348 0.908573
vt 0.135605 0.908573
vt 0.135605 0.995033
vt 0.116348 0.995033
vt 0.028402 0.262644
vt 0.019398 0.263371
vt 0.019398 0.247920
vt 0.021588 0.245710
vt 0.025969 0.245710
vt 0.028160 0.247920
vt 0.025969 0.245710
vt 0.021588 0.245710
vt 0.028402 0.262644
vt 0.019398 0.263371
vt 0.019398 0.247920
vt 0.028160 0.247920
vt 0.019172 0.265439
vt 0.028233 0.265439
vt 0.028233 0.303652
vt 0.025968 0.305920
vt 0.021437 0.305920
vt 0.019172 0.303652
vt 0.021437 0.305671
vt 0.025968 0.305671
vt 0.019172 0.265189
vt 0.028233 0.265189
vt 0.028233 0.303403
vt 0.019172 0.303403
vt 0.170260 0.388262
vt 0.178009 0.388262
vt 0.178009 0.995490
vt 0.170260 0.995490
vt 0.150543 0.388262
vt 0.150543 0.995490
vt 0.140382 0.995964
vt 0.140382 0.388262
vt 0.317421 0.388262
vt 0.317421 0.995490
vt 0.309672 0.995490
vt 0.309672 0.388262
vt 0.337138 0.388262
vt 0.347299 0.388262
vt 0.347299 0.995965
vt 0.337138 0.995490
vt 0.321126 0.368189
vt 0.343608 0.368189
vt 0.344188 0.379760
vt 0.323532 0.379760
vt 0.317250 0.376129
vt 0.273152 0.368547
vt 0.273152 0.379760
vt 0.242838 0.379760
vt 0.242838 0.368189
vt 0.212525 0.379760
vt 0.212525 0.368547
vt 0.162145 0.379760
vt 0.168426 0.376129
vt 0.164550 0.368189
vt 0.141489 0.379760
vt 0.142069 0.368189
vt 0.142078 0.367902
vt 0.164557 0.367903
vt 0.162152 0.379473
vt 0.141490 0.379484
vt 0.168433 0.375842
vt 0.212528 0.368262
vt 0.212527 0.379474
vt 0.242839 0.367905
vt 0.242838 0.379475
vt 0.273149 0.368264
vt 0.273149 0.379476
vt 0.317244 0.375847
vt 0.323525 0.379477
vt 0.321120 0.367907
vt 0.343599 0.367908
vt 0.344186 0.379490
vt 0.217253 0.388262
vt 0.217253 0.995490
vt 0.243841 0.388262
vt 0.243840 0.995490
vt 0.270428 0.995490
vt 0.270428 0.388262
vn 0.000000 0.000000 -1.000000
vn 0.000000 0.000000 -1.000000
vn 0.000000 0.000000 -1.000000
vn 0.000000 0.000000 -1.000000
vn -0.169445 0.000000 -0.985540
vn -0.169445 0.000000 -0.985540
vn -0.106102 0.000000 -0.994355
vn -0.106102 0.000000 -0.994355
vn 0.898641 0.000000 -0.438685
vn 0.898641 0.000000 -0.438685
vn 0.898641 0.000000 -0.438685
vn 0.898641 0.000000 -0.438685
vn 0.000000 0.000000 -1.000000
vn 0.000000 0.000000 -1.000000
vn 0.000000 1.000000 0.000005
vn 0.000000 1.000000 0.000006
vn 0.000000 1.000000 0.000006
vn 0.000000 1.000000 0.000006
vn 0.012532 -0.999685 -0.021746
vn 0.011803 -0.999721 -0.020480
vn 0.008578 -0.999853 -0.014884
vn 0.012532 -0.999685 -0.021746
vn -0.998746 0.000000 -0.050073
vn -0.998746 0.000000 -0.050073
vn -0.998746 0.000000 -0.050073
vn -0.998746 0.000000 -0.050073
vn 0.000000 1.000000 0.000009
vn 0.000001 -1.000000 0.000000
vn 0.000000 -1.000000 0.000000
vn 0.000000 -1.000000 0.000000
vn 0.000000 1.000000 0.000004
vn 0.000000 1.000000 0.000005
vn 0.000000 -1.000000 0.000000
vn 0.000000 -1.000000 0.000000
vn 0.000000 1.000000 -0.000000
vn 0.000000 1.000000 -0.000000
vn 0.000000 0.000000 -1.000000
vn 0.000000 0.000000 -1.000000
vn 0.000000 0.000000 -1.000000
vn 0.000000 0.000000 -1.000000
vn 0.169445 0.000000 -0.985540
vn 0.106102 0.000000 -0.994355
vn 0.106102 0.000000 -0.994355
vn 0.169445 0.000000 -0.985540
vn -0.898641 0.000000 -0.438685
vn -0.898641 0.000000 -0.438685
vn -0.898641 0.000000 -0.438685
vn -0.898641 0.000000 -0.438685
vn 0.000000 1.000000 0.000006
vn 0.000000 1.000000 0.000007
vn 0.000000 1.000000 0.000006
vn 0.000000 1.000000 0.000006
vn -0.012532 -0.999685 -0.021746
vn -0.012532 -0.999685 -0.021746
vn -0.008578 -0.999853 -0.014884
vn -0.011803 -0.999721 -0.020480
vn 0.998746 0.000000 -0.050073
vn 0.998746 0.000000 -0.050073
vn 0.998746 0.000000 -0.050073
vn 0.998746 0.000000 -0.050073
vn 0.000000 1.000000 0.000009
vn -0.000001 -1.000000 0.000000
vn -0.000000 -1.000000 0.000000
vn -0.000000 -1.000000 0.000000
vn 0.000000 1.000000 0.000004
vn 0.000000 1.000000 0.000005
vn 0.000000 0.000000 -1.000000
vn 0.000000 0.000000 -1.000000
vn 0.000000 0.000000 -1.000000
vn 0.000000 0.000000 -1.000000
vn 0.000000 -1.000000 0.000000
vn 0.000000 -1.000000 0.000000
vn 0.000000 -1.000000 0.000000
vn 0.000000 -1.000000 0.000000
vn -1.000000 0.000000 0.000000
vn -1.000000 0.000000 0.000000
vn -1.000000 0.000000 0.000000
vn -1.000000 0.000000 0.000000
vn 0.000000 1.000000 0.000000
vn 0.000000 1.000000 0.000000
vn 0.000000 1.000000 0.000000
vn 0.000000 1.000000 0.000000
vn 1.000000 0.000000 0.000000
vn 1.000000 0.000000 0.000000
vn 1.000000 0.000000 0.000000
vn 1.000000 0.000000 0.000000
vn 0.000000 0.000000 -1.000000
vn 0.000000 0.000000 -1.000000
vn 0.000000 0.000000 -1.000000
vn 0.000000 0.000000 -1.000000
vn 0.000000 0.000000 -1.000000
vn 0.000000 0.000000 -1.000000
vn 0.000000 -1.000000 0.000000
vn 0.000000 -1.000000 0.000000
vn 0.000000 -1.000000 0.000000
vn 0.000000 -1.000000 0.000000
vn 0.000000 1.000000 0.000034
vn 0.000000 1.000000 0.000034
vn 0.000000 1.000000 0.000034
vn 0.000000 1.000000 0.000034
vn 1.000000 0.000000 0.000000
vn 1.000000 0.000000 0.000000
vn 1.000000 0.000000 0.000000
vn 1.000000 0.000000 0.000000
vn -1.000000 0.000000 0.000000
vn -1.000000 0.000000 0.000000
vn -1.000000 0.000000 0.000000
vn -1.000000 0.000000 0.000000
vn -0.707102 -0.707111 0.000000
vn -0.707102 -0.707111 0.000000
vn -0.707102 -0.707111 0.000000
vn -0.707102 -0.707111 0.000000
vn 0.707101 -0.707113 0.000000
vn 0.707101 -0.707113 0.000000
vn 0.707101 -0.707113 0.000000
vn 0.707101 -0.707113 0.000000
vn 0.000000 0.128004 -0.991774
vn 0.000000 0.128004 -0.991774
vn 0.000000 0.128004 -0.991774
vn 0.000000 0.128004 -0.991774
vn 0.000000 0.128004 -0.991774
vn 0.000000 0.128004 -0.991774
vn 0.000000 0.991774 0.128002
vn 0.000000 0.991774 0.128002
vn 0.000000 0.991774 0.128002
vn 0.000000 0.991774 0.128002
vn 0.000000 -0.991779 -0.127962
vn 0.000000 -0.991779 -0.127962
vn 0.000000 -0.991779 -0.127962
vn 0.000000 -0.991779 -0.127962
vn -1.000000 0.000000 0.000000
vn -1.000000 0.000000 0.000000
vn -1.000000 0.000000 0.000000
vn -1.000000 0.000000 0.000000
vn 1.000000 0.000001 0.000000
vn 1.000000 0.000001 0.000000
vn 1.000000 0.000001 0.000000
vn 1.000000 0.000001 0.000000
vn 0.000000 -0.128004 0.991774
vn 0.000000 -0.128004 0.991774
vn 0.000000 -0.128004 0.991774
vn 0.000000 -0.128004 0.991774
vn 0.000000 -0.128004 0.991774
vn 0.000000 -0.128004 0.991774
vn 0.707096 0.701301 0.090507
vn 0.707096 0.701301 0.090507
vn 0.707096 0.701301 0.090507
vn 0.707096 0.701301 0.090507
vn -0.707100 0.701296 0.090518
vn -0.707100 0.701296 0.090518
vn -0.707100 0.701296 0.090518
vn -0.707100 0.701296 0.090518
s off
g G2_B
usemtl phong4SG
f 2/37/1 1/33/2 4/36/3 3/38/4
s 1
f 6/35/5 5/34/6 7/81/7 8/82/8
s off
f 1/33/9 5/34/10 6/35/11 4/36/12
s 1
f 8/82/8 7/81/7 15/83/13 16/84/14
s 2
f 1/49/15 2/50/16 9/51/17 12/52/18
s 3
f 3/65/19 4/66/20 11/67/21 10/68/22
s off
f 2/37/23 3/38/24 10/39/25 9/40/26
s 2
f 5/53/27 1/49/15 12/52/18
s 3
f 4/66/20 6/69/28 11/67/21
f 6/69/28 8/70/29 14/71/30 11/67/21
s 2
f 7/54/31 5/53/27 12/52/18 13/55/32
s 3
f 8/70/29 16/72/33 18/73/34 14/71/30
s 2
f 17/56/35 15/57/36 7/54/31 13/55/32
s off
f 20/45/37 21/48/38 22/42/39 19/41/40
s 1
f 24/43/41 26/85/42 25/86/43 23/44/44
s off
f 19/41/45 22/42/46 24/43/47 23/44/48
s 1
f 26/85/42 16/84/14 15/83/13 25/86/43
s 2
f 19/62/49 30/60/50 27/63/51 20/64/52
s 3
f 21/79/53 28/80/54 29/77/55 22/78/56
s off
f 20/45/57 27/46/58 28/47/59 21/48/60
s 2
f 23/61/61 30/60/50 19/62/49
s 3
f 22/78/56 29/77/55 24/76/62
f 24/76/62 29/77/55 32/75/63 26/74/64
s 2
f 25/59/65 31/58/66 30/60/50 23/61/61
s 3
f 26/74/64 32/75/63 18/73/34 16/72/33
s 2
f 17/56/35 31/58/66 25/59/65 15/57/36
s off
f 37/1/67 38/2/68 39/3/69 40/4/70
f 33/5/71 34/6/72 38/2/73 37/1/74
f 34/6/75 35/7/76 39/3/77 38/2/78
f 35/7/79 36/8/80 40/4/81 39/3/82
f 36/8/83 33/5/84 37/1/85 40/4/86
f 41/9/87 42/10/88 43/11/89 44/12/90 45/13/91 46/14/92
f 47/15/93 45/13/94 44/12/95 48/16/96
f 49/17/97 50/18/98 42/10/99 41/9/100
f 42/10/101 50/18/102 51/19/103 43/11/104
f 49/17/105 41/9/106 46/14/107 52/20/108
f 46/14/109 45/13/110 47/15/111 52/20/112
f 44/12/113 43/11/114 51/19/115 48/16/116
f 53/21/117 54/22/118 55/23/119 56/24/120 57/25/121 58/26/122
f 59/27/123 57/25/124 56/24/125 60/28/126
f 61/29/127 62/30/128 54/22/129 53/21/130
f 54/22/131 62/30/132 63/31/133 55/23/134
f 61/29/135 53/21/136 58/26/137 64/32/138
f 64/32/139 59/27/140 60/28/141 63/31/142 62/30/143 61/29/144
f 58/26/145 57/25/146 59/27/147 64/32/148
f 56/24/149 55/23/150 63/31/151 60/28/152
