<svg width="25" height="24" viewBox="0 0 25 24" fill="none" xmlns="http://www.w3.org/2000/svg">
<rect x="1.19922" y="0.5" width="23.2646" height="23" rx="11.5"  fill="white" fill-opacity="0.1"/>
<path d="M18.424 11.5312H13.3057V6.46875C13.3057 6.20986 13.0935 6 12.8318 6C12.57 6 12.3578 6.20986 12.3578 6.46875V11.5312H7.23954C6.9778 11.5312 6.76562 11.7411 6.76562 12C6.76562 12.2589 6.9778 12.4688 7.23954 12.4688H12.3578V17.5312C12.3578 17.7901 12.57 18 12.8318 18C13.0935 18 13.3057 17.7901 13.3057 17.5312V12.4688H18.424C18.6857 12.4688 18.8979 12.2589 18.8979 12C18.8979 11.7411 18.6857 11.5312 18.424 11.5312Z" fill="white"/>
</svg>
