<svg xmlns="http://www.w3.org/2000/svg" viewBox="0 0 42.09 48.6"><defs><style>.cls-1{fill:#fff;}</style></defs><g id="레이어_2" data-name="레이어 2"><g id="Layer_1" data-name="Layer 1"><path class="cls-1" d="M30.27,18.29l-5.06-2.92L21,13l-2.8,1.62,12.63,7.29,4.2,2.43,1.41.81h0l2.8,1.62,2.81,1.62V12.15L21,0,0,12.15V17H0L5.53,20.2l2.89,1.67,2.8,1.62L29.46,34,21,38.88l-9.82-5.67-2.8-1.62V28.35L11.22,30,21,35.64,23.85,34,11.22,26.73l-2.8-1.62L5.61,23.49h0l-2.8-1.62L0,20.25v16.2L21.05,48.6l21-12.15V31.59L39.28,30l-5.61-3.24-2.8-1.62L12.63,14.58,21,9.72l9.83,5.67L33.67,17v3.24ZM21,6.48,7,14.58,37.88,32.4l1.4.81v1.62L21,45.36,3.42,35.18l-.61-.35V25.11l2.8,1.62v6.48L21,42.12l14-8.1L2.81,15.39V13.77L21,3.24,39.28,13.77v9.72l-2.8-1.62V15.39Z"/></g></g></svg>