

mtllib G1_F_R.mtl
g default
v 114.608595 2.768608 59.472065
v 114.608595 193.585449 59.472065
v 86.991704 2.768608 59.472065
v 86.991704 193.495209 59.472065
v 106.636379 2.768608 58.257896
v 107.250656 2.768608 59.472061
v 107.250656 193.585449 59.472069
v 106.636379 193.585449 58.257900
v 94.349644 2.768608 59.472065
v 94.963919 2.768608 58.257900
v 94.963919 193.495209 58.257900
v 94.349644 193.495209 59.472065
v 114.763746 2.768608 57.797554
v 106.943517 2.768608 57.797550
v 114.763746 193.585449 57.797554
v 94.656782 2.768608 57.797554
v 106.943517 193.585449 57.797554
v 94.656782 193.495209 57.797554
v 86.836557 2.768608 57.797596
v 86.836557 193.495209 57.797596
v 86.836557 2.768608 57.797554
v 86.836557 193.495209 57.797554
v 92.954133 91.242165 59.887268
v 90.912091 91.242165 59.887268
v 92.954133 91.242149 59.451828
v 90.912091 91.242149 59.451828
v 92.954133 87.673737 59.887268
v 92.443673 87.163284 59.887268
v 92.954133 87.673737 59.451828
v 92.443673 87.163284 59.451828
v 91.422550 87.163284 59.887268
v 90.912091 87.673737 59.887268
v 90.912091 87.673737 59.451828
v 91.422550 87.163284 59.451828
v 90.130356 85.276474 59.580250
v 93.859796 85.276474 59.580250
v 90.130356 102.020554 59.580250
v 93.859796 102.020554 59.580250
v 90.912091 91.437943 60.977932
v 92.954133 91.437943 60.977932
v 90.912091 91.382217 60.546070
v 92.954133 91.382217 60.546070
v 90.912091 99.511070 59.935970
v 91.422550 100.017319 59.870628
v 90.912091 99.455330 59.504112
v 91.422550 99.961578 59.438770
v 92.443673 100.017319 59.870628
v 92.954133 99.511070 59.935970
v 92.954133 99.455330 59.504112
v 92.443673 99.961578 59.438770
vt 0.003448 0.315822
vt 0.003448 0.996440
vt 0.035351 0.996440
vt 0.035351 0.315822
vt 0.096491 0.996137
vt 0.128394 0.996137
vt 0.128394 0.315822
vt 0.096491 0.315822
vt 0.040616 0.996440
vt 0.091226 0.996137
vt 0.091226 0.315822
vt 0.040616 0.315822
vt 0.298640 0.113172
vt 0.290003 0.111588
vt 0.290003 0.151925
vt 0.298640 0.151125
vt 0.315781 0.151125
vt 0.324418 0.151925
vt 0.324418 0.111588
vt 0.315781 0.113172
vt 0.167907 0.007874
vt 0.159270 0.007874
vt 0.159270 0.992126
vt 0.167907 0.992126
vt 0.264224 0.991660
vt 0.272862 0.991660
vt 0.272862 0.007874
vt 0.264224 0.007874
vt 0.292377 0.049796
vt 0.290003 0.048211
vt 0.292377 0.110003
vt 0.298640 0.008674
vt 0.290003 0.007874
vt 0.290003 0.007874
vt 0.298640 0.046627
vt 0.322044 0.110003
vt 0.324418 0.048212
vt 0.322044 0.049796
vt 0.315781 0.046627
vt 0.324418 0.007874
vt 0.324418 0.007874
vt 0.315781 0.008674
vt 0.028402 0.262644
vt 0.019398 0.263371
vt 0.019398 0.247920
vt 0.021588 0.245710
vt 0.025969 0.245710
vt 0.028160 0.247920
vt 0.025969 0.245710
vt 0.021588 0.245710
vt 0.028402 0.262644
vt 0.019398 0.263371
vt 0.019398 0.247920
vt 0.028160 0.247920
vt 0.116348 0.908573
vt 0.135605 0.908573
vt 0.135605 0.995033
vt 0.116348 0.995033
vt 0.003402 0.250115
vt 0.017209 0.250115
vt 0.017209 0.302705
vt 0.013758 0.305826
vt 0.006854 0.305826
vt 0.003402 0.302705
vt 0.006854 0.305483
vt 0.013758 0.305483
vt 0.003402 0.249772
vt 0.017209 0.249772
vt 0.017209 0.302361
vt 0.003402 0.302361
vn 0.000000 -0.000000 1.000000
vn 0.000000 -0.000000 1.000000
vn 0.000000 -0.000000 1.000000
vn 0.000000 -0.000000 1.000000
vn 0.000000 0.000000 1.000000
vn 0.000000 0.000000 1.000000
vn 0.000000 0.000000 1.000000
vn 0.000000 0.000000 1.000000
vn 0.000000 -0.000000 1.000000
vn 0.000000 -0.000000 1.000000
vn 0.000000 -0.000000 1.000000
vn 0.000000 -0.000000 1.000000
vn -0.892303 -0.000000 0.451436
vn -0.892303 -0.000000 0.451436
vn -0.892303 -0.000000 0.451436
vn -0.892303 -0.000000 0.451436
vn 0.892303 0.000000 0.451438
vn 0.892303 0.000000 0.451438
vn 0.892303 0.000000 0.451438
vn 0.892303 0.000000 0.451438
vn 0.000000 -1.000000 0.000000
vn 0.000000 -1.000000 0.000000
vn 0.000000 -1.000000 0.000000
vn 0.000000 -1.000000 0.000000
vn 0.000000 1.000000 0.000000
vn 0.000000 1.000000 0.000000
vn 0.000000 1.000000 0.000000
vn 0.000000 1.000000 0.000000
vn 0.995735 0.000000 0.092259
vn 0.995735 0.000000 0.092259
vn 0.995735 0.000000 0.092259
vn 0.995735 0.000000 0.092259
vn -0.995735 0.000000 0.092259
vn -0.995735 0.000000 0.092259
vn -0.995735 0.000000 0.092259
vn -0.995735 0.000000 0.092259
vn 0.000000 -1.000000 0.000000
vn 0.000000 -1.000000 0.000000
vn 0.000000 -1.000000 0.000000
vn 0.000000 -1.000000 0.000000
vn 0.000000 -1.000000 0.000000
vn 0.000000 -1.000000 0.000000
vn 0.000000 -1.000000 0.000000
vn 0.000000 -1.000000 0.000000
vn 0.000000 -1.000000 0.000000
vn -0.007533 0.999972 0.000000
vn -0.007533 0.999972 0.000000
vn -0.007533 0.999972 0.000000
vn -0.007533 0.999972 0.000000
vn 0.000000 1.000000 -0.000010
vn 0.000000 1.000000 -0.000010
vn 0.000000 1.000000 -0.000010
vn 0.000000 1.000000 -0.000010
vn 0.000000 1.000000 -0.000010
vn 0.000000 -1.000000 0.000000
vn 0.000000 -1.000000 0.000000
vn 0.000000 -1.000000 0.000000
vn 0.000000 1.000000 0.000000
vn 0.000000 1.000000 0.000000
vn 0.000000 1.000000 0.000000
vn 0.000000 -1.000000 0.000000
vn 0.000000 -1.000000 0.000000
vn 0.000000 -1.000000 0.000000
vn 0.000000 1.000000 0.000000
vn 0.000000 1.000000 0.000000
vn 0.000000 1.000000 0.000000
vn 0.000000 0.000000 1.000000
vn 0.000000 0.000000 1.000000
vn 0.000000 0.000000 1.000000
vn 0.000000 0.000000 1.000000
vn 0.000000 0.000000 1.000000
vn 0.000000 0.000000 1.000000
vn 0.000000 -1.000000 0.000000
vn 0.000000 -1.000000 0.000000
vn 0.000000 -1.000000 0.000000
vn 0.000000 -1.000000 0.000000
vn 0.000000 1.000000 -0.000034
vn 0.000000 1.000000 -0.000034
vn 0.000000 1.000000 -0.000034
vn 0.000000 1.000000 -0.000034
vn -1.000000 0.000000 0.000000
vn -1.000000 0.000000 0.000000
vn -1.000000 0.000000 0.000000
vn -1.000000 0.000000 0.000000
vn 1.000000 0.000000 0.000000
vn 1.000000 0.000000 0.000000
vn 1.000000 0.000000 0.000000
vn 1.000000 0.000000 0.000000
vn 0.707101 -0.707112 0.000000
vn 0.707101 -0.707112 0.000000
vn 0.707101 -0.707112 0.000000
vn 0.707101 -0.707112 0.000000
vn -0.707101 -0.707112 0.000000
vn -0.707101 -0.707112 0.000000
vn -0.707101 -0.707112 0.000000
vn -0.707101 -0.707112 0.000000
vn 0.000000 0.000000 1.000000
vn 0.000000 0.000000 1.000000
vn 0.000000 0.000000 1.000000
vn 0.000000 0.000000 1.000000
vn 0.000000 0.128004 0.991774
vn 0.000000 0.128004 0.991774
vn 0.000000 0.128004 0.991774
vn 0.000000 0.128004 0.991774
vn 0.000000 0.128004 0.991774
vn 0.000000 0.128004 0.991774
vn 0.000000 0.991774 -0.128004
vn 0.000000 0.991774 -0.128004
vn 0.000000 0.991774 -0.128004
vn 0.000000 0.991774 -0.128004
vn 0.000000 -0.991779 0.127965
vn 0.000000 -0.991779 0.127965
vn 0.000000 -0.991779 0.127965
vn 0.000000 -0.991779 0.127965
vn 1.000000 0.000000 0.000000
vn 1.000000 0.000000 0.000000
vn 1.000000 0.000000 0.000000
vn 1.000000 0.000000 0.000000
vn -1.000000 0.000000 0.000000
vn -1.000000 0.000000 0.000000
vn -1.000000 0.000000 0.000000
vn -1.000000 0.000000 0.000000
vn 0.000000 -0.128004 -0.991774
vn 0.000000 -0.128004 -0.991774
vn 0.000000 -0.128004 -0.991774
vn 0.000000 -0.128004 -0.991774
vn 0.000000 -0.128004 -0.991774
vn 0.000000 -0.128004 -0.991774
vn -0.707096 0.701300 -0.090520
vn -0.707096 0.701300 -0.090520
vn -0.707096 0.701300 -0.090520
vn -0.707096 0.701300 -0.090520
vn 0.707098 0.701298 -0.090519
vn 0.707098 0.701298 -0.090519
vn 0.707098 0.701298 -0.090519
vn 0.707098 0.701298 -0.090519
s off
g G1_F_R
usemtl phong4SG
f 1/1/1 2/2/2 7/3/3 6/4/4
f 12/5/5 4/6/6 3/7/7 9/8/8
f 8/9/9 11/10/10 10/11/11 5/12/12
f 6/4/13 7/3/14 8/9/15 5/12/16
f 10/11/17 11/10/18 12/5/19 9/8/20
f 6/13/21 14/14/22 13/15/23 1/16/24
f 2/17/25 15/18/26 17/19/27 7/20/28
f 1/21/29 13/22/30 15/23/31 2/24/32
f 4/25/33 20/26/34 19/27/35 3/28/36
f 10/29/37 16/30/38 14/14/39 5/31/40
f 3/32/41 19/33/42 21/34/43 16/30/44 9/35/45
f 8/36/46 17/19/47 18/37/48 11/38/49
f 12/39/50 18/37/51 22/40/52 20/41/53 4/42/54
f 5/31/55 14/14/56 6/13/57
f 7/20/58 17/19/59 8/36/60
f 9/35/61 16/30/62 10/29/63
f 11/38/64 18/37/65 12/39/66
f 23/43/67 24/44/68 32/45/69 31/46/70 28/47/71 27/48/72
f 30/49/73 28/47/74 31/46/75 34/50/76
f 25/51/77 26/52/78 24/44/79 23/43/80
f 24/44/81 26/52/82 33/53/83 32/45/84
f 25/51/85 23/43/86 27/48/87 29/54/88
f 27/48/89 28/47/90 30/49/91 29/54/92
f 31/46/93 32/45/94 33/53/95 34/50/96
f 35/55/97 36/56/98 38/57/99 37/58/100
f 39/59/101 40/60/102 48/61/103 47/62/104 44/63/105 43/64/106
f 46/65/107 44/63/108 47/62/109 50/66/110
f 41/67/111 42/68/112 40/60/113 39/59/114
f 40/60/115 42/68/116 49/69/117 48/61/118
f 41/67/119 39/59/120 43/64/121 45/70/122
f 45/70/123 46/65/124 50/66/125 49/69/126 42/68/127 41/67/128
f 43/64/129 44/63/130 46/65/131 45/70/132
f 47/62/133 48/61/134 49/69/135 50/66/136
